<svg width="32" height="32" viewBox="0 0 32 32" fill="none" xmlns="http://www.w3.org/2000/svg">
<path d="M25.8976 18.2825C25.4936 18.2825 25.1061 18.4431 24.8204 18.7289C24.5347 19.0147 24.3742 19.4024 24.3742 19.8066V20.3858L22.1196 18.1301C21.3235 17.3398 20.2476 16.8964 19.1261 16.8964C18.0047 16.8964 16.9288 17.3398 16.1327 18.1301L15.0663 19.197L11.2883 15.417C10.4811 14.6482 9.40931 14.2195 8.29485 14.2195C7.18039 14.2195 6.10861 14.6482 5.30139 15.417L3.04678 17.6728V9.13744C3.04678 8.7332 3.20728 8.34552 3.49297 8.05968C3.77866 7.77385 4.16614 7.61326 4.57017 7.61326H15.2339C15.6379 7.61326 16.0254 7.45268 16.3111 7.16684C16.5968 6.88101 16.7573 6.49333 16.7573 6.08909C16.7573 5.68486 16.5968 5.29718 16.3111 5.01134C16.0254 4.7255 15.6379 4.56492 15.2339 4.56492H4.57017C3.35808 4.56492 2.19564 5.04666 1.33857 5.90418C0.481498 6.76169 0 7.92473 0 9.13744V27.4275C0 28.6402 0.481498 29.8033 1.33857 30.6608C2.19564 31.5183 3.35808 32 4.57017 32H22.8508C24.0629 32 25.2254 31.5183 26.0824 30.6608C26.9395 29.8033 27.421 28.6402 27.421 27.4275V19.8066C27.421 19.4024 27.2605 19.0147 26.9748 18.7289C26.6891 18.4431 26.3016 18.2825 25.8976 18.2825ZM4.57017 28.9517C4.16614 28.9517 3.77866 28.7911 3.49297 28.5053C3.20728 28.2194 3.04678 27.8317 3.04678 27.4275V21.9862L7.46461 17.5661C7.68841 17.3527 7.9857 17.2337 8.29485 17.2337C8.604 17.2337 8.9013 17.3527 9.1251 17.5661L13.9542 22.3977L20.5048 28.9517H4.57017ZM24.3742 27.4275C24.372 27.7193 24.2759 28.0026 24.1 28.2353L17.2295 21.3308L18.2959 20.2639C18.4051 20.1524 18.5355 20.0638 18.6793 20.0033C18.8232 19.9428 18.9777 19.9116 19.1338 19.9116C19.2898 19.9116 19.4443 19.9428 19.5882 20.0033C19.732 20.0638 19.8624 20.1524 19.9716 20.2639L24.3742 24.6992V27.4275ZM31.5494 5.00693L26.9792 0.43441C26.8343 0.295648 26.6635 0.186876 26.4765 0.114334C26.1056 -0.0381112 25.6896 -0.0381112 25.3187 0.114334C25.1317 0.186876 24.9609 0.295648 24.816 0.43441L20.2458 5.00693C19.959 5.29394 19.7978 5.6832 19.7978 6.08909C19.7978 6.49498 19.959 6.88425 20.2458 7.17125C20.5327 7.45826 20.9218 7.6195 21.3274 7.6195C21.7331 7.6195 22.1222 7.45826 22.409 7.17125L24.3742 5.18983V13.71C24.3742 14.1142 24.5347 14.5019 24.8204 14.7877C25.1061 15.0735 25.4936 15.2341 25.8976 15.2341C26.3016 15.2341 26.6891 15.0735 26.9748 14.7877C27.2605 14.5019 27.421 14.1142 27.421 13.71V5.18983L29.3862 7.17125C29.5278 7.31411 29.6963 7.4275 29.8819 7.50488C30.0676 7.58226 30.2667 7.6221 30.4678 7.6221C30.6689 7.6221 30.868 7.58226 31.0536 7.50488C31.2393 7.4275 31.4078 7.31411 31.5494 7.17125C31.6922 7.02956 31.8055 6.86099 31.8828 6.67525C31.9602 6.48952 32 6.2903 32 6.08909C32 5.88788 31.9602 5.68866 31.8828 5.50293C31.8055 5.3172 31.6922 5.14862 31.5494 5.00693Z" fill="#3483FA"/>
</svg>
