<svg width="44" height="32" viewBox="0 0 44 32" fill="none" xmlns="http://www.w3.org/2000/svg">
<path d="M29.8004 0C30.3273 0 30.8327 0.210714 31.2053 0.585787C31.5778 0.96086 31.7871 1.46957 31.7871 2V10.4L42.1438 3.1C42.2927 2.99491 42.4674 2.933 42.6489 2.92101C42.8304 2.90901 43.0116 2.9474 43.1729 3.03199C43.3342 3.11658 43.4693 3.24412 43.5636 3.40071C43.6578 3.5573 43.7075 3.73692 43.7073 3.92V28.08C43.7075 28.2631 43.6578 28.4427 43.5636 28.5993C43.4693 28.7559 43.3342 28.8834 43.1729 28.968C43.0116 29.0526 42.8304 29.091 42.6489 29.079C42.4674 29.067 42.2927 29.0051 42.1438 28.9L31.7871 21.6V30C31.7871 30.5305 31.5778 31.0392 31.2053 31.4142C30.8327 31.7893 30.3273 32 29.8004 32H1.9867C1.45979 32 0.954468 31.7893 0.58189 31.4142C0.209312 31.0392 0 30.5305 0 30V2C0 1.46957 0.209312 0.96086 0.58189 0.585787C0.954468 0.210714 1.45979 0 1.9867 0H29.8004ZM27.8137 4H3.97339V28H27.8137V4ZM15.8936 8.00001L23.8404 16H17.8803V24H13.9069V16H7.94678L15.8936 8.00001ZM39.7339 9.68201L31.7871 15.282V16.718L39.7339 22.318V9.68001V9.68201Z" fill="#3483FA"/>
</svg>
