<svg width="27" height="27" viewBox="0 0 27 27" fill="none" xmlns="http://www.w3.org/2000/svg">
<path d="M12.8819 25.8144L12.8816 25.814C12.7358 25.6682 12.6712 25.458 12.7121 25.2558L12.7121 25.2558L12.81 25.2754L12.7122 25.2556L12.8819 25.8144ZM12.8819 25.8144C12.9992 25.9304 13.1573 25.9947 13.3195 25.9947C13.3588 25.9947 13.3992 25.9911 13.4385 25.9837L13.4397 25.9834L17.1065 25.2501L17.1069 25.25M12.8819 25.8144L17.1069 25.25M17.1069 25.25C17.2269 25.2255 17.3373 25.1676 17.4234 25.0803C17.4235 25.0802 17.4236 25.0802 17.4237 25.0801L25.4911 17.0123C26.137 16.3664 26.137 15.3166 25.4911 14.6707L24.0244 13.204C23.3796 12.5591 22.3277 12.5591 21.6829 13.204L13.6159 21.2712C13.6158 21.2714 13.6156 21.2716 13.6154 21.2717L17.1069 25.25ZM16.6818 24.0723L14.1087 24.5868L14.6231 22.0136L22.5587 14.0777C22.722 13.9145 22.9875 13.9145 23.1507 14.0777L24.6174 15.5445C24.7806 15.7077 24.7806 15.9732 24.6174 16.1365L16.6818 24.0723Z" fill="#FD7E02" stroke="#FD7E02" stroke-width="0.2"/>
<path d="M3.57319 22.8831H10.8342C11.1757 22.8831 11.4528 22.606 11.4528 22.2645C11.4528 21.9229 11.1757 21.6458 10.8342 21.6458H3.57319C2.77059 21.6458 2.11726 20.9925 2.11726 20.1898V6.70463C2.11726 5.90199 2.77059 5.24865 3.57319 5.24865H5.64776C5.98928 5.24865 6.2664 4.97152 6.2664 4.62999C6.2664 4.28846 5.98928 4.01133 5.64776 4.01133H3.57319C2.08754 4.01133 0.87998 5.21894 0.87998 6.70463V20.1898C0.87998 21.6755 2.08754 22.8831 3.57319 22.8831Z" fill="#FD7E02" stroke="#FD7E02" stroke-width="0.2"/>
<path d="M17.4752 12.9286C17.4752 13.2701 17.7523 13.5472 18.0938 13.5472C18.4353 13.5472 18.7124 13.2701 18.7124 12.9286V6.70463C18.7124 5.21894 17.5049 4.01133 16.0192 4.01133H13.9447C13.6031 4.01133 13.326 4.28846 13.326 4.62999C13.326 4.97152 13.6031 5.24865 13.9447 5.24865H16.0192C16.8218 5.24865 17.4752 5.90199 17.4752 6.70463V12.9286Z" fill="#FD7E02" stroke="#FD7E02" stroke-width="0.2"/>
<path d="M6.68239 7.32393H12.9061C13.8192 7.32393 14.562 6.58104 14.562 5.66795V3.59331C14.562 3.25178 14.2849 2.97464 13.9434 2.97464H12.416C12.136 1.78648 11.0663 0.9 9.79424 0.9C8.52215 0.9 7.45252 1.78648 7.17248 2.97464H5.64511C5.30358 2.97464 5.02646 3.25178 5.02646 3.59331V5.66795C5.02646 6.58104 5.76933 7.32393 6.68239 7.32393ZM6.26375 5.66795V4.21197H7.71968C8.0612 4.21197 8.33832 3.93483 8.33832 3.59331C8.33832 2.79067 8.99164 2.13732 9.79424 2.13732C10.5968 2.13732 11.2502 2.79067 11.2502 3.59331C11.2502 3.93483 11.5273 4.21197 11.8688 4.21197H13.3247V5.66795C13.3247 5.89799 13.1361 6.08661 12.9061 6.08661H6.68239C6.45237 6.08661 6.26375 5.89799 6.26375 5.66795Z" fill="#FD7E02" stroke="#FD7E02" stroke-width="0.2"/>
<path d="M4.60897 10.4362H14.9818C15.3233 10.4362 15.6005 10.159 15.6005 9.81749C15.6005 9.47596 15.3233 9.19883 14.9818 9.19883H4.60897C4.26745 9.19883 3.99033 9.47596 3.99033 9.81749C3.99033 10.159 4.26745 10.4362 4.60897 10.4362Z" fill="#FD7E02" stroke="#FD7E02" stroke-width="0.2"/>
<path d="M4.60897 13.5475H14.9818C15.3233 13.5475 15.6005 13.2703 15.6005 12.9288C15.6005 12.5873 15.3233 12.3102 14.9818 12.3102H4.60897C4.26745 12.3102 3.99033 12.5873 3.99033 12.9288C3.99033 13.2703 4.26745 13.5475 4.60897 13.5475Z" fill="#FD7E02" stroke="#FD7E02" stroke-width="0.2"/>
<path d="M4.60897 16.6598H14.9818C15.3233 16.6598 15.6005 16.3826 15.6005 16.0411C15.6005 15.6996 15.3233 15.4225 14.9818 15.4225H4.60897C4.26745 15.4225 3.99033 15.6996 3.99033 16.0411C3.99033 16.3826 4.26745 16.6598 4.60897 16.6598Z" fill="#FD7E02" stroke="#FD7E02" stroke-width="0.2"/>
</svg>
