<svg width="26" height="27" viewBox="0 0 26 27" fill="none" xmlns="http://www.w3.org/2000/svg">
<mask id="path-1-outside-1" maskUnits="userSpaceOnUse" x="-0.558594" y="0" width="26" height="27" fill="black">
<rect fill="white" x="-0.558594" width="26" height="27"/>
<path d="M25.1405 6.30137C25.1405 6.08898 24.9779 5.9168 24.7774 5.91685C24.5769 5.91691 24.4143 6.08903 24.4143 6.30142L24.4151 16.4056C24.4152 16.8679 24.0619 17.2421 23.6252 17.2422C23.1897 17.2422 22.8353 16.867 22.8352 16.4057L22.8342 2.60574C22.8341 2.14342 23.1874 1.76913 23.624 1.76907C24.0596 1.76907 24.414 2.14429 24.414 2.60559L24.4142 4.49652C24.4142 4.70891 24.5768 4.88109 24.7773 4.88103C24.9779 4.88098 25.1404 4.70886 25.1404 4.49647L25.1402 2.60554C25.1402 1.72013 24.46 0.999898 23.624 1C22.788 1.00005 22.1079 1.72044 22.108 2.60579L22.108 3.00277C20.5304 4.8514 18.2877 5.90945 15.932 5.90965C14.728 5.90975 11.6239 5.91001 10.4964 5.91011C9.83745 5.91016 9.28947 6.42199 9.18768 7.08996H9.12018C7.80414 7.09006 6.73896 8.21815 6.73906 9.61212C6.73915 11.0057 7.8041 12.1339 9.12038 12.1339H9.12057H9.23568C9.29945 12.3421 9.40891 12.5331 9.55933 12.6923C9.8098 12.9576 10.1428 13.1036 10.497 13.1036H10.5507V13.789C9.622 13.8907 8.77612 14.3808 8.19013 15.1689C7.70814 15.7378 7.51807 16.3182 6.80057 16.5386V16.0692C6.80057 15.6148 6.45149 15.2452 6.02247 15.2452H4.7952C4.4341 15.2452 4.13057 15.5074 4.0432 15.8612H1.22736C0.794007 15.8612 0.441406 16.2346 0.441406 16.6936V24.4466C0.441406 24.9056 0.794007 25.279 1.22736 25.279H4.0432C4.13057 25.6328 4.4341 25.8951 4.7952 25.8951H6.02233C6.45139 25.8951 6.80042 25.5254 6.80042 25.071V24.5137C7.05581 24.5272 7.33735 24.4652 7.73053 24.6311C8.43611 24.8707 9.80035 25.7862 12.061 25.7862H14.4217C15.0842 25.7862 15.6232 25.2154 15.6232 24.5138V23.9461C15.6232 23.7197 15.5671 23.5069 15.4688 23.3225C15.8771 23.1191 16.1605 22.6791 16.1605 22.1704V21.6026C16.1605 21.3569 16.0944 21.1273 15.9801 20.9326C16.3426 20.7134 16.5876 20.2999 16.5876 19.8269V19.2592C16.5876 18.9862 16.5059 18.7331 16.3673 18.5256C16.6771 18.2952 16.8801 17.9139 16.8801 17.4834V16.9156C16.8801 16.214 16.3411 15.6432 15.6787 15.6432L14.6927 15.643L15.03 13.1031C15.262 13.1031 15.6995 13.1031 15.9325 13.103H15.9332C18.2884 13.103 20.5313 14.1607 22.109 16.0089L22.109 16.4057C22.1091 17.2911 22.7893 18.0113 23.6253 18.0112C24.4632 18.0112 25.1414 17.293 25.1413 16.4055L25.1405 6.30137ZM9.12028 11.3648C8.20774 11.3648 7.46524 10.5785 7.4652 9.61202C7.4651 8.64328 8.20528 7.85908 9.12018 7.85898H9.17055L9.17079 11.3647C9.14257 11.3648 9.14879 11.3648 9.12028 11.3648ZM10.4969 12.3345C10.3367 12.3345 10.186 12.2684 10.0727 12.1484C9.97084 12.0406 9.91058 11.9006 9.89934 11.7502C9.89934 11.7499 9.89939 11.7496 9.89939 11.7492C9.89823 6.48994 9.89674 7.42604 9.89669 7.3145C9.89669 6.96422 10.1657 6.67924 10.4964 6.67919L14.7984 6.67883L14.7988 12.3341L10.4969 12.3345ZM6.07424 25.071C6.07424 25.1013 6.05093 25.1259 6.02233 25.1259H4.7952C4.76659 25.1259 4.74329 25.1013 4.74329 25.071V19.663C4.74329 19.4506 4.58071 19.2784 4.38017 19.2784C4.17963 19.2784 4.01705 19.4506 4.01705 19.663V24.5099H1.22736C1.19442 24.5099 1.16764 24.4815 1.16764 24.4466V16.6935C1.16764 16.6586 1.19446 16.6302 1.22736 16.6302H4.0171V17.8652C4.0171 18.0776 4.17968 18.2497 4.38022 18.2497C4.58076 18.2497 4.74334 18.0776 4.74334 17.8652V16.0691C4.74334 16.0388 4.76664 16.0141 4.79524 16.0141H6.02237C6.05098 16.0141 6.07428 16.0388 6.07428 16.0691V25.071H6.07424ZM16.1539 16.9156V17.4834C16.1539 17.7609 15.9407 17.9867 15.6787 17.9867H15.3861C15.1856 17.9867 15.023 18.1588 15.023 18.3712C15.023 18.5836 15.1856 18.7558 15.3861 18.7558C15.6482 18.7558 15.8614 18.9816 15.8614 19.2591V19.8268C15.8614 20.1043 15.6482 20.3301 15.3861 20.3301H14.9591C14.7586 20.3301 14.596 20.5023 14.596 20.7147C14.596 20.9271 14.7586 21.0992 14.9591 21.0992C15.2212 21.0992 15.4343 21.325 15.4343 21.6026V22.1703C15.4343 22.4478 15.2212 22.6737 14.9591 22.6737H14.4218C14.2212 22.6737 14.0587 22.8458 14.0587 23.0582C14.0587 23.2706 14.2212 23.4428 14.4218 23.4428C14.6838 23.4428 14.897 23.6686 14.897 23.9461V24.5138C14.897 24.7913 14.6838 25.0171 14.4217 25.0171H12.061C9.98685 25.0171 8.78138 24.1842 7.99928 23.9166C7.43861 23.68 7.01867 23.7581 6.80042 23.7445V17.329C7.96855 17.0896 8.33186 16.1184 8.76054 15.6447C9.20779 15.0432 9.84637 14.6611 10.5506 14.563V15.2394C10.5506 15.8854 11.0469 16.4112 11.6569 16.4113C12.4104 16.4115 14.9035 16.4121 15.6786 16.4123C15.9407 16.4123 16.1539 16.6381 16.1539 16.9156V16.9156ZM13.9593 15.6428L11.6571 15.6423C11.4474 15.6422 11.2768 15.4615 11.2768 15.2394V14.1533V13.1034L14.2966 13.1032L13.9593 15.6428ZM15.9332 12.3339C15.933 12.3339 15.9326 12.3339 15.9325 12.3339L15.525 12.334L15.5246 6.67878H15.932C18.2356 6.67857 20.4399 5.748 22.1081 4.09852L22.1089 14.9132C20.4407 13.2641 18.2365 12.3339 15.9332 12.3339Z"/>
</mask>
<path d="M25.1405 6.30137C25.1405 6.08898 24.9779 5.9168 24.7774 5.91685C24.5769 5.91691 24.4143 6.08903 24.4143 6.30142L24.4151 16.4056C24.4152 16.8679 24.0619 17.2421 23.6252 17.2422C23.1897 17.2422 22.8353 16.867 22.8352 16.4057L22.8342 2.60574C22.8341 2.14342 23.1874 1.76913 23.624 1.76907C24.0596 1.76907 24.414 2.14429 24.414 2.60559L24.4142 4.49652C24.4142 4.70891 24.5768 4.88109 24.7773 4.88103C24.9779 4.88098 25.1404 4.70886 25.1404 4.49647L25.1402 2.60554C25.1402 1.72013 24.46 0.999898 23.624 1C22.788 1.00005 22.1079 1.72044 22.108 2.60579L22.108 3.00277C20.5304 4.8514 18.2877 5.90945 15.932 5.90965C14.728 5.90975 11.6239 5.91001 10.4964 5.91011C9.83745 5.91016 9.28947 6.42199 9.18768 7.08996H9.12018C7.80414 7.09006 6.73896 8.21815 6.73906 9.61212C6.73915 11.0057 7.8041 12.1339 9.12038 12.1339H9.12057H9.23568C9.29945 12.3421 9.40891 12.5331 9.55933 12.6923C9.8098 12.9576 10.1428 13.1036 10.497 13.1036H10.5507V13.789C9.622 13.8907 8.77612 14.3808 8.19013 15.1689C7.70814 15.7378 7.51807 16.3182 6.80057 16.5386V16.0692C6.80057 15.6148 6.45149 15.2452 6.02247 15.2452H4.7952C4.4341 15.2452 4.13057 15.5074 4.0432 15.8612H1.22736C0.794007 15.8612 0.441406 16.2346 0.441406 16.6936V24.4466C0.441406 24.9056 0.794007 25.279 1.22736 25.279H4.0432C4.13057 25.6328 4.4341 25.8951 4.7952 25.8951H6.02233C6.45139 25.8951 6.80042 25.5254 6.80042 25.071V24.5137C7.05581 24.5272 7.33735 24.4652 7.73053 24.6311C8.43611 24.8707 9.80035 25.7862 12.061 25.7862H14.4217C15.0842 25.7862 15.6232 25.2154 15.6232 24.5138V23.9461C15.6232 23.7197 15.5671 23.5069 15.4688 23.3225C15.8771 23.1191 16.1605 22.6791 16.1605 22.1704V21.6026C16.1605 21.3569 16.0944 21.1273 15.9801 20.9326C16.3426 20.7134 16.5876 20.2999 16.5876 19.8269V19.2592C16.5876 18.9862 16.5059 18.7331 16.3673 18.5256C16.6771 18.2952 16.8801 17.9139 16.8801 17.4834V16.9156C16.8801 16.214 16.3411 15.6432 15.6787 15.6432L14.6927 15.643L15.03 13.1031C15.262 13.1031 15.6995 13.1031 15.9325 13.103H15.9332C18.2884 13.103 20.5313 14.1607 22.109 16.0089L22.109 16.4057C22.1091 17.2911 22.7893 18.0113 23.6253 18.0112C24.4632 18.0112 25.1414 17.293 25.1413 16.4055L25.1405 6.30137ZM9.12028 11.3648C8.20774 11.3648 7.46524 10.5785 7.4652 9.61202C7.4651 8.64328 8.20528 7.85908 9.12018 7.85898H9.17055L9.17079 11.3647C9.14257 11.3648 9.14879 11.3648 9.12028 11.3648ZM10.4969 12.3345C10.3367 12.3345 10.186 12.2684 10.0727 12.1484C9.97084 12.0406 9.91058 11.9006 9.89934 11.7502C9.89934 11.7499 9.89939 11.7496 9.89939 11.7492C9.89823 6.48994 9.89674 7.42604 9.89669 7.3145C9.89669 6.96422 10.1657 6.67924 10.4964 6.67919L14.7984 6.67883L14.7988 12.3341L10.4969 12.3345ZM6.07424 25.071C6.07424 25.1013 6.05093 25.1259 6.02233 25.1259H4.7952C4.76659 25.1259 4.74329 25.1013 4.74329 25.071V19.663C4.74329 19.4506 4.58071 19.2784 4.38017 19.2784C4.17963 19.2784 4.01705 19.4506 4.01705 19.663V24.5099H1.22736C1.19442 24.5099 1.16764 24.4815 1.16764 24.4466V16.6935C1.16764 16.6586 1.19446 16.6302 1.22736 16.6302H4.0171V17.8652C4.0171 18.0776 4.17968 18.2497 4.38022 18.2497C4.58076 18.2497 4.74334 18.0776 4.74334 17.8652V16.0691C4.74334 16.0388 4.76664 16.0141 4.79524 16.0141H6.02237C6.05098 16.0141 6.07428 16.0388 6.07428 16.0691V25.071H6.07424ZM16.1539 16.9156V17.4834C16.1539 17.7609 15.9407 17.9867 15.6787 17.9867H15.3861C15.1856 17.9867 15.023 18.1588 15.023 18.3712C15.023 18.5836 15.1856 18.7558 15.3861 18.7558C15.6482 18.7558 15.8614 18.9816 15.8614 19.2591V19.8268C15.8614 20.1043 15.6482 20.3301 15.3861 20.3301H14.9591C14.7586 20.3301 14.596 20.5023 14.596 20.7147C14.596 20.9271 14.7586 21.0992 14.9591 21.0992C15.2212 21.0992 15.4343 21.325 15.4343 21.6026V22.1703C15.4343 22.4478 15.2212 22.6737 14.9591 22.6737H14.4218C14.2212 22.6737 14.0587 22.8458 14.0587 23.0582C14.0587 23.2706 14.2212 23.4428 14.4218 23.4428C14.6838 23.4428 14.897 23.6686 14.897 23.9461V24.5138C14.897 24.7913 14.6838 25.0171 14.4217 25.0171H12.061C9.98685 25.0171 8.78138 24.1842 7.99928 23.9166C7.43861 23.68 7.01867 23.7581 6.80042 23.7445V17.329C7.96855 17.0896 8.33186 16.1184 8.76054 15.6447C9.20779 15.0432 9.84637 14.6611 10.5506 14.563V15.2394C10.5506 15.8854 11.0469 16.4112 11.6569 16.4113C12.4104 16.4115 14.9035 16.4121 15.6786 16.4123C15.9407 16.4123 16.1539 16.6381 16.1539 16.9156V16.9156ZM13.9593 15.6428L11.6571 15.6423C11.4474 15.6422 11.2768 15.4615 11.2768 15.2394V14.1533V13.1034L14.2966 13.1032L13.9593 15.6428ZM15.9332 12.3339C15.933 12.3339 15.9326 12.3339 15.9325 12.3339L15.525 12.334L15.5246 6.67878H15.932C18.2356 6.67857 20.4399 5.748 22.1081 4.09852L22.1089 14.9132C20.4407 13.2641 18.2365 12.3339 15.9332 12.3339Z" fill="#FD7E02"/>
<path d="M25.1405 6.30137C25.1405 6.08898 24.9779 5.9168 24.7774 5.91685C24.5769 5.91691 24.4143 6.08903 24.4143 6.30142L24.4151 16.4056C24.4152 16.8679 24.0619 17.2421 23.6252 17.2422C23.1897 17.2422 22.8353 16.867 22.8352 16.4057L22.8342 2.60574C22.8341 2.14342 23.1874 1.76913 23.624 1.76907C24.0596 1.76907 24.414 2.14429 24.414 2.60559L24.4142 4.49652C24.4142 4.70891 24.5768 4.88109 24.7773 4.88103C24.9779 4.88098 25.1404 4.70886 25.1404 4.49647L25.1402 2.60554C25.1402 1.72013 24.46 0.999898 23.624 1C22.788 1.00005 22.1079 1.72044 22.108 2.60579L22.108 3.00277C20.5304 4.8514 18.2877 5.90945 15.932 5.90965C14.728 5.90975 11.6239 5.91001 10.4964 5.91011C9.83745 5.91016 9.28947 6.42199 9.18768 7.08996H9.12018C7.80414 7.09006 6.73896 8.21815 6.73906 9.61212C6.73915 11.0057 7.8041 12.1339 9.12038 12.1339H9.12057H9.23568C9.29945 12.3421 9.40891 12.5331 9.55933 12.6923C9.8098 12.9576 10.1428 13.1036 10.497 13.1036H10.5507V13.789C9.622 13.8907 8.77612 14.3808 8.19013 15.1689C7.70814 15.7378 7.51807 16.3182 6.80057 16.5386V16.0692C6.80057 15.6148 6.45149 15.2452 6.02247 15.2452H4.7952C4.4341 15.2452 4.13057 15.5074 4.0432 15.8612H1.22736C0.794007 15.8612 0.441406 16.2346 0.441406 16.6936V24.4466C0.441406 24.9056 0.794007 25.279 1.22736 25.279H4.0432C4.13057 25.6328 4.4341 25.8951 4.7952 25.8951H6.02233C6.45139 25.8951 6.80042 25.5254 6.80042 25.071V24.5137C7.05581 24.5272 7.33735 24.4652 7.73053 24.6311C8.43611 24.8707 9.80035 25.7862 12.061 25.7862H14.4217C15.0842 25.7862 15.6232 25.2154 15.6232 24.5138V23.9461C15.6232 23.7197 15.5671 23.5069 15.4688 23.3225C15.8771 23.1191 16.1605 22.6791 16.1605 22.1704V21.6026C16.1605 21.3569 16.0944 21.1273 15.9801 20.9326C16.3426 20.7134 16.5876 20.2999 16.5876 19.8269V19.2592C16.5876 18.9862 16.5059 18.7331 16.3673 18.5256C16.6771 18.2952 16.8801 17.9139 16.8801 17.4834V16.9156C16.8801 16.214 16.3411 15.6432 15.6787 15.6432L14.6927 15.643L15.03 13.1031C15.262 13.1031 15.6995 13.1031 15.9325 13.103H15.9332C18.2884 13.103 20.5313 14.1607 22.109 16.0089L22.109 16.4057C22.1091 17.2911 22.7893 18.0113 23.6253 18.0112C24.4632 18.0112 25.1414 17.293 25.1413 16.4055L25.1405 6.30137ZM9.12028 11.3648C8.20774 11.3648 7.46524 10.5785 7.4652 9.61202C7.4651 8.64328 8.20528 7.85908 9.12018 7.85898H9.17055L9.17079 11.3647C9.14257 11.3648 9.14879 11.3648 9.12028 11.3648ZM10.4969 12.3345C10.3367 12.3345 10.186 12.2684 10.0727 12.1484C9.97084 12.0406 9.91058 11.9006 9.89934 11.7502C9.89934 11.7499 9.89939 11.7496 9.89939 11.7492C9.89823 6.48994 9.89674 7.42604 9.89669 7.3145C9.89669 6.96422 10.1657 6.67924 10.4964 6.67919L14.7984 6.67883L14.7988 12.3341L10.4969 12.3345ZM6.07424 25.071C6.07424 25.1013 6.05093 25.1259 6.02233 25.1259H4.7952C4.76659 25.1259 4.74329 25.1013 4.74329 25.071V19.663C4.74329 19.4506 4.58071 19.2784 4.38017 19.2784C4.17963 19.2784 4.01705 19.4506 4.01705 19.663V24.5099H1.22736C1.19442 24.5099 1.16764 24.4815 1.16764 24.4466V16.6935C1.16764 16.6586 1.19446 16.6302 1.22736 16.6302H4.0171V17.8652C4.0171 18.0776 4.17968 18.2497 4.38022 18.2497C4.58076 18.2497 4.74334 18.0776 4.74334 17.8652V16.0691C4.74334 16.0388 4.76664 16.0141 4.79524 16.0141H6.02237C6.05098 16.0141 6.07428 16.0388 6.07428 16.0691V25.071H6.07424ZM16.1539 16.9156V17.4834C16.1539 17.7609 15.9407 17.9867 15.6787 17.9867H15.3861C15.1856 17.9867 15.023 18.1588 15.023 18.3712C15.023 18.5836 15.1856 18.7558 15.3861 18.7558C15.6482 18.7558 15.8614 18.9816 15.8614 19.2591V19.8268C15.8614 20.1043 15.6482 20.3301 15.3861 20.3301H14.9591C14.7586 20.3301 14.596 20.5023 14.596 20.7147C14.596 20.9271 14.7586 21.0992 14.9591 21.0992C15.2212 21.0992 15.4343 21.325 15.4343 21.6026V22.1703C15.4343 22.4478 15.2212 22.6737 14.9591 22.6737H14.4218C14.2212 22.6737 14.0587 22.8458 14.0587 23.0582C14.0587 23.2706 14.2212 23.4428 14.4218 23.4428C14.6838 23.4428 14.897 23.6686 14.897 23.9461V24.5138C14.897 24.7913 14.6838 25.0171 14.4217 25.0171H12.061C9.98685 25.0171 8.78138 24.1842 7.99928 23.9166C7.43861 23.68 7.01867 23.7581 6.80042 23.7445V17.329C7.96855 17.0896 8.33186 16.1184 8.76054 15.6447C9.20779 15.0432 9.84637 14.6611 10.5506 14.563V15.2394C10.5506 15.8854 11.0469 16.4112 11.6569 16.4113C12.4104 16.4115 14.9035 16.4121 15.6786 16.4123C15.9407 16.4123 16.1539 16.6381 16.1539 16.9156V16.9156ZM13.9593 15.6428L11.6571 15.6423C11.4474 15.6422 11.2768 15.4615 11.2768 15.2394V14.1533V13.1034L14.2966 13.1032L13.9593 15.6428ZM15.9332 12.3339C15.933 12.3339 15.9326 12.3339 15.9325 12.3339L15.525 12.334L15.5246 6.67878H15.932C18.2356 6.67857 20.4399 5.748 22.1081 4.09852L22.1089 14.9132C20.4407 13.2641 18.2365 12.3339 15.9332 12.3339Z" stroke="#FD7E02" stroke-width="0.4" mask="url(#path-1-outside-1)"/>
</svg>
