<svg width="27" height="27" viewBox="0 0 27 27" fill="none" xmlns="http://www.w3.org/2000/svg">
<path d="M18.0521 14.6055L14.8029 18.4581L12.5177 15.8713L12.5177 15.8713C12.4073 15.7464 12.2511 15.6741 12.0861 15.6741C11.9212 15.6741 11.765 15.7463 11.6546 15.8713L11.6546 15.8713L6.44186 21.772V8.35792C6.44186 7.70323 6.94868 7.1787 7.56152 7.1787H23.8343H23.8447C24.4529 7.1846 24.9539 7.70689 24.9539 8.35787V21.7443L18.9333 14.6055C18.8226 14.4742 18.6624 14.3978 18.4927 14.3978C18.323 14.3978 18.1627 14.4742 18.0521 14.6055ZM23.8343 5.95866H21.8884V3.29922C21.8884 1.98074 20.8646 0.9 19.5962 0.9H3.32347C2.05508 0.9 1.03135 1.98079 1.03135 3.29922V18.7339C1.03135 20.0524 2.05508 21.1331 3.32347 21.1331H5.26939V23.7925C5.26939 25.111 6.29312 26.1918 7.56152 26.1918H23.8343C25.1027 26.1918 26.1264 25.111 26.1264 23.7926V8.35792C26.1264 7.03945 25.1027 5.95866 23.8343 5.95866ZM14.025 19.3804L11.686 22.1538H7.69723L12.0861 17.1856L14.025 19.3804ZM5.26939 8.35792V19.9132H3.32347C2.71064 19.9132 2.20381 19.3886 2.20381 18.7339V3.29922C2.20381 2.64452 2.71063 2.11999 3.32347 2.11999H19.5962C20.2091 2.11999 20.7159 2.64452 20.7159 3.29922V5.95866H7.56152C6.29312 5.95866 5.26939 7.03945 5.26939 8.35792ZM23.8343 24.9718H7.56152C6.94868 24.9718 6.44186 24.4473 6.44186 23.7926V23.3738H16.8867C17.2149 23.3738 17.4729 23.0962 17.4729 22.7638C17.4729 22.4315 17.2149 22.1539 16.8867 22.1539H13.246L18.4927 15.9327L23.7394 22.1539H21.2829C20.9547 22.1539 20.6966 22.4315 20.6966 22.7638C20.6966 23.0962 20.9547 23.3738 21.2829 23.3738H24.9539V23.7926C24.9539 24.4473 24.4471 24.9718 23.8343 24.9718Z" fill="#FD7E02" stroke="#FD7E02" stroke-width="0.2"/>
<path d="M19.6682 22.8869L19.6682 22.8869C19.6127 23.1639 19.3735 23.3732 19.0943 23.3732C18.8461 23.3732 18.6245 23.207 18.5426 22.969C18.463 22.738 18.5271 22.4705 18.706 22.3063L19.6682 22.8869ZM19.6682 22.8869C19.7172 22.642 19.6122 22.3808 19.4053 22.2466L19.6682 22.8869ZM19.4053 22.2466C19.1869 22.1049 18.8988 22.1293 18.706 22.3063L19.4053 22.2466Z" fill="#FD7E02" stroke="#FD7E02" stroke-width="0.2"/>
<path d="M11.1876 11.5258C11.1876 13.0678 12.3846 14.3303 13.8661 14.3303C15.3475 14.3303 16.5446 13.0678 16.5446 11.5258C16.5446 9.98384 15.3475 8.72129 13.8661 8.72129C12.3846 8.72129 11.1876 9.98384 11.1876 11.5258ZM12.3601 11.5258C12.3601 10.6476 13.0402 9.94128 13.8661 9.94128C14.692 9.94128 15.3721 10.6476 15.3721 11.5258C15.3721 12.404 14.692 13.1103 13.8661 13.1103C13.0402 13.1103 12.3601 12.404 12.3601 11.5258Z" fill="#FD7E02" stroke="#FD7E02" stroke-width="0.2"/>
</svg>
