<svg width="27" height="25" viewBox="0 0 27 25" fill="none" xmlns="http://www.w3.org/2000/svg">
<path fill-rule="evenodd" clip-rule="evenodd" d="M13.3871 23.3871C19.6712 23.3871 24.6774 18.4649 24.6774 12.5C24.6774 6.53511 19.6712 1.6129 13.3871 1.6129C7.10299 1.6129 2.09679 6.53511 2.09679 12.5C2.09679 18.4649 7.10299 23.3871 13.3871 23.3871ZM13.3871 25C20.5134 25 26.2903 19.4036 26.2903 12.5C26.2903 5.59644 20.5134 0 13.3871 0C6.26086 0 0.483887 5.59644 0.483887 12.5C0.483887 19.4036 6.26086 25 13.3871 25Z" fill="#FD7E02"/>
<path d="M14.9781 15.8224C14.9781 15.3919 14.8573 15.0506 14.6158 14.7986C14.3795 14.5413 13.9752 14.305 13.403 14.0898C12.8307 13.8745 12.3371 13.6619 11.9224 13.4519C11.5076 13.2366 11.1506 12.9925 10.8513 12.7194C10.5573 12.4412 10.3263 12.1157 10.1583 11.7429C9.99549 11.3701 9.91411 10.9265 9.91411 10.4119C9.91411 9.52461 10.1976 8.79744 10.7647 8.23041C11.3317 7.66337 12.0851 7.3326 13.0249 7.23809V5.55273H14.285V7.26172C15.2143 7.39298 15.9415 7.7815 16.4665 8.42729C16.9916 9.06783 17.2541 9.90001 17.2541 10.9238H14.9781C14.9781 10.2938 14.8468 9.82388 14.5843 9.51411C14.327 9.19909 13.9805 9.04158 13.5447 9.04158C13.1142 9.04158 12.7808 9.16497 12.5445 9.41173C12.3083 9.65325 12.1901 9.98927 12.1901 10.4198C12.1901 10.8188 12.3056 11.1391 12.5367 11.3806C12.7677 11.6221 13.1956 11.8689 13.8204 12.1209C14.4504 12.3729 14.9676 12.6118 15.3718 12.8376C15.7761 13.0581 16.1174 13.3101 16.3956 13.5936C16.6739 13.8719 16.8866 14.1922 17.0336 14.5544C17.1806 14.9115 17.2541 15.3289 17.2541 15.8066C17.2541 16.6992 16.9758 17.4237 16.4193 17.9803C15.8627 18.5368 15.0962 18.865 14.1196 18.9647V20.5319H12.8674V18.9726C11.7911 18.8571 10.9563 18.4764 10.363 17.8306C9.77498 17.1796 9.48096 16.3159 9.48096 15.2396H11.757C11.757 15.8644 11.904 16.3448 12.198 16.6808C12.4973 17.0116 12.9252 17.177 13.4817 17.177C13.9437 17.177 14.3086 17.0562 14.5764 16.8147C14.8442 16.5679 14.9781 16.2372 14.9781 15.8224Z" fill="#FD7E02"/>
</svg>
