<svg width="26" height="26" viewBox="0 0 26 26" fill="none" xmlns="http://www.w3.org/2000/svg">
<path d="M18.5206 16.4547C19.9624 14.5042 20.6354 12.0875 20.4054 9.6676C20.1683 7.17418 18.9903 4.86472 17.1109 3.20903C15.2316 1.55334 12.7921 0.6758 10.2886 0.75492C7.78524 0.83404 5.406 1.86388 3.63494 3.63494C1.86388 5.406 0.83404 7.78524 0.75492 10.2887C0.6758 12.7921 1.55334 15.2316 3.20903 17.1109C4.86472 18.9903 7.17418 20.1683 9.6676 20.4054C12.0877 20.6355 14.5047 19.9623 16.4554 18.5201L22.7572 24.8219C22.7572 24.8219 22.7572 24.8219 22.7572 24.822C23.031 25.0959 23.4024 25.2499 23.7897 25.25C24.177 25.2501 24.5485 25.0964 24.8225 24.8226C25.0965 24.5488 25.2505 24.1774 25.2506 23.7901C25.2507 23.4028 25.097 23.0313 24.8232 22.7573L24.8232 22.7572L18.5206 16.4547ZM15.515 15.5138C14.2116 16.8171 12.4439 17.5493 10.6007 17.5493C8.75747 17.5493 6.98975 16.8171 5.6864 15.5138C4.38306 14.2104 3.65084 12.4427 3.65084 10.5995C3.65084 8.75627 4.38306 6.98855 5.6864 5.6852C6.98975 4.38186 8.75747 3.64964 10.6007 3.64964C12.4439 3.64964 14.2116 4.38186 15.515 5.6852C16.8183 6.98855 17.5505 8.75627 17.5505 10.5995C17.5505 12.4427 16.8183 14.2104 15.515 15.5138Z" fill="white" stroke="white" stroke-width="0.5"/>
</svg>
