<svg width="28" height="32" viewBox="0 0 28 32" fill="none" xmlns="http://www.w3.org/2000/svg">
<path d="M13.9992 32C15.06 32 16.0774 31.5786 16.8275 30.8285C17.5776 30.0784 17.999 29.061 17.999 28.0002H9.99945C9.99945 29.061 10.4209 30.0784 11.171 30.8285C11.9211 31.5786 12.9384 32 13.9992 32ZM15.9891 2.19963C16.017 1.92155 15.9864 1.64071 15.8991 1.37522C15.8118 1.10973 15.6698 0.865482 15.4823 0.65823C15.2948 0.450978 15.066 0.285323 14.8105 0.17195C14.5551 0.0585757 14.2787 0 13.9992 0C13.7198 0 13.4434 0.0585757 13.1879 0.17195C12.9325 0.285323 12.7037 0.450978 12.5162 0.65823C12.3287 0.865482 12.1867 1.10973 12.0994 1.37522C12.0121 1.64071 11.9814 1.92155 12.0093 2.19963C9.7489 2.65941 7.71682 3.88626 6.25719 5.67244C4.79755 7.45862 4.00007 9.69437 3.99978 12.0011C3.99978 14.197 2.99984 24.0004 0 26.0003H27.9985C24.9986 24.0004 23.9987 14.197 23.9987 12.0011C23.9987 7.16136 20.5589 3.12158 15.9891 2.19963Z" fill="#FD7E02"/>
</svg>
