<svg width="62" height="62" viewBox="0 0 62 62" fill="none" xmlns="http://www.w3.org/2000/svg">
<path d="M31 61C47.5685 61 61 47.5685 61 31C61 14.4315 47.5685 1 31 1C14.4315 1 1 14.4315 1 31C1 47.5685 14.4315 61 31 61Z" stroke="#AEAEAE" stroke-width="1.5" stroke-miterlimit="10"/>
<path d="M45.4445 36.9257C45.4445 36.9257 42.3592 43.6302 49.0858 48.5179C53.4192 44.0569 55.941 38.1453 56.1622 31.93C56.1333 31.9118 49.6942 27.872 45.4445 36.9257Z" stroke="#AEAEAE" stroke-width="1.5" stroke-miterlimit="10"/>
<path d="M17.8516 23.4072C25.6299 19.8892 29.8887 20.4413 29.8887 20.4413C29.8887 20.4413 34.7041 19.715 43.4072 23.2262C52.086 26.7245 55.6748 26.0477 55.6953 26.0439C53.3941 14.5064 43.2141 5.8147 31.0005 5.8147C18.8326 5.8147 8.68381 14.441 6.33008 25.91C6.3316 25.9108 10.0755 26.9253 17.8516 23.4072Z" stroke="#AEAEAE" stroke-width="1.5" stroke-miterlimit="10"/>
<path d="M17.3984 52.1919C21.5048 54.8295 26.2893 56.2164 31.1696 56.184C36.0499 56.1516 40.8156 54.7012 44.8865 52.0094C44.8614 51.9896 30.0759 41.9192 17.3984 52.1919Z" stroke="#AEAEAE" stroke-width="1.5" stroke-miterlimit="10"/>
<path d="M5.83398 31.7453C6.00079 37.7571 8.32184 43.509 12.3742 47.9529C12.378 47.9529 19.3313 45.6486 15.4436 36.2885C15.4451 36.2915 13.2602 29.3421 5.83398 31.7453Z" stroke="#AEAEAE" stroke-width="1.5" stroke-miterlimit="10"/>
<path d="M31.0001 36.2458C34.8621 36.2458 37.9928 34.3258 37.9928 31.9574C37.9928 29.5889 34.8621 27.6689 31.0001 27.6689C27.1381 27.6689 24.0073 29.5889 24.0073 31.9574C24.0073 34.3258 27.1381 36.2458 31.0001 36.2458Z" stroke="#AEAEAE" stroke-width="1.5" stroke-miterlimit="10"/>
</svg>
