<svg width="82" height="62" viewBox="0 0 82 62" fill="none" xmlns="http://www.w3.org/2000/svg">
<path d="M33.6814 43.6883L34.9338 43.1709L34.6529 41.5792L34.372 39.9866L33.021 39.9292C32.3201 37.6382 31.1049 35.5378 29.4683 33.7881L30.0965 32.5801L28.8582 31.5411L27.6199 30.5022L26.5437 31.3297C24.5369 30.0205 22.256 29.1904 19.8772 28.9035L19.5842 27.5776H16.3516L16.0586 28.9035C13.6794 29.1906 11.3981 30.021 9.39108 31.3307L8.31489 30.5032L7.07561 31.5421L5.83632 32.5811L6.46553 33.7891C4.82888 35.5388 3.6137 37.6392 2.91278 39.9302L1.56075 39.9876L1.28088 41.5802L1 43.1719L2.25237 43.6893C2.23828 43.9652 2.23022 44.243 2.23022 44.5219C2.22731 46.6385 2.65334 48.7337 3.48259 50.681L2.48694 51.5972L3.29232 52.9975L4.0977 54.3979L5.38934 53.9881C6.83227 55.9011 8.69123 57.4609 10.8257 58.5496L10.6465 59.8936L12.1656 60.4473L13.6848 61L14.4247 59.8523C16.7591 60.3946 19.1868 60.3946 21.5212 59.8523L22.248 60.997L23.7672 60.4443L25.2863 59.8906L25.1031 58.5436C27.2373 57.4545 29.0962 55.8948 30.5394 53.9821L31.8311 54.3918L32.6364 52.9915L33.4519 51.5972L32.4542 50.6851C33.283 48.7376 33.709 46.6424 33.7066 44.5259C33.7036 44.242 33.6955 43.9642 33.6814 43.6883Z" stroke="#AEAEAE" stroke-width="1.5" stroke-miterlimit="10"/>
<path d="M17.9674 53.2512C22.789 53.2512 26.6978 49.3425 26.6978 44.5209C26.6978 39.6992 22.789 35.7905 17.9674 35.7905C13.1458 35.7905 9.23706 39.6992 9.23706 44.5209C9.23706 49.3425 13.1458 53.2512 17.9674 53.2512Z" stroke="#AEAEAE" stroke-width="1.5" stroke-miterlimit="10"/>
<path d="M17.9674 48.2719C20.039 48.2719 21.7184 46.5925 21.7184 44.5208C21.7184 42.4492 20.039 40.7698 17.9674 40.7698C15.8957 40.7698 14.2163 42.4492 14.2163 44.5208C14.2163 46.5925 15.8957 48.2719 17.9674 48.2719Z" stroke="#AEAEAE" stroke-width="1.5" stroke-miterlimit="10"/>
<path d="M79.2028 47.1153L80.2095 46.7005L79.984 45.424L79.7615 44.1474L78.6773 44.1011C78.1155 42.2631 77.141 40.5779 75.8282 39.1742L76.3316 38.2077L75.3319 37.3752L74.3393 36.5416L73.4795 37.201C71.8696 36.1514 70.0399 35.4859 68.1318 35.256L67.8982 34.1919H65.3049L65.0703 35.256C63.164 35.4867 61.3361 36.1521 59.7276 37.201L58.8649 36.5376L57.8712 37.3711L56.8746 38.2077L57.3779 39.1742C56.0649 40.5779 55.09 42.2631 54.5279 44.1011L53.4456 44.1474L53.2201 45.424L52.9946 46.7005L54.0014 47.1153C53.9899 47.3367 53.9842 47.5596 53.9842 47.7837C53.9829 49.4812 54.3254 51.1613 54.991 52.7227L54.1906 53.4546L54.839 54.5771L55.4873 55.6996L56.5242 55.3714C57.6811 56.9061 59.1721 58.1572 60.8844 59.0299L60.7344 60.1081L61.9535 60.5511L63.1716 60.995L63.7545 60.0769C65.6266 60.5118 67.5735 60.5118 69.4456 60.0769L70.0295 60.995L71.2476 60.5511L72.4658 60.1081L72.3228 59.0299C74.0349 58.1569 75.5259 56.9058 76.6829 55.3714L77.7189 55.6996L78.3672 54.5771L79.0155 53.4546L78.2102 52.7227C78.8757 51.1612 79.2182 49.4812 79.2169 47.7837C79.2196 47.5596 79.2149 47.3367 79.2028 47.1153Z" stroke="#AEAEAE" stroke-width="1.5" stroke-miterlimit="10"/>
<path d="M66.6014 54.7836C70.4678 54.7836 73.6022 51.6492 73.6022 47.7828C73.6022 43.9163 70.4678 40.782 66.6014 40.782C62.7349 40.782 59.6006 43.9163 59.6006 47.7828C59.6006 51.6492 62.7349 54.7836 66.6014 54.7836Z" stroke="#AEAEAE" stroke-width="1.5" stroke-miterlimit="10"/>
<path d="M66.6014 50.7906C68.2627 50.7906 69.6095 49.4438 69.6095 47.7825C69.6095 46.1212 68.2627 44.7744 66.6014 44.7744C64.94 44.7744 63.5933 46.1212 63.5933 47.7825C63.5933 49.4438 64.94 50.7906 66.6014 50.7906Z" stroke="#AEAEAE" stroke-width="1.5" stroke-miterlimit="10"/>
<path d="M52.7298 22.7282H45.9474L41.8078 6.84507C41.7578 6.65271 41.6454 6.48239 41.4881 6.36085C41.3309 6.23932 41.1377 6.17345 40.939 6.17358H11.3864C11.168 6.17375 10.9571 6.25344 10.7931 6.39777C10.6292 6.54209 10.5234 6.74118 10.4955 6.95782L8.69847 21.0037C8.69847 21.0037 6.70113 23.3091 5.37023 24.8393C5.04355 25.2142 4.85942 25.6921 4.85022 26.1893C4.84101 26.6864 5.00731 27.1708 5.31989 27.5575L5.34607 27.5907C5.6202 27.9332 5.99673 28.1791 6.42058 28.2923C6.84444 28.4055 7.2934 28.3801 7.70181 28.2199L9.18976 27.637C13.2871 26.0313 17.7208 25.4283 22.0859 25.981C22.3719 26.0172 22.6568 26.0575 22.9386 26.1028C29.3575 27.1337 34.8613 31.2502 37.7678 37.064L41.0326 43.5937H48.5337L49.181 42.2567C51.0807 38.3305 54.2942 35.1643 58.2929 33.4167L58.6201 33.2747C61.74 31.9918 65.1396 31.5409 68.4861 31.966L73.3697 32.5619V24.946C73.3697 24.3586 73.1364 23.7953 72.721 23.3799C72.3056 22.9646 71.7423 22.7312 71.1549 22.7312H55.0865" stroke="#AEAEAE" stroke-width="1.5" stroke-miterlimit="10"/>
<path d="M55.0866 22.7282V1.9725C55.0866 1.71458 54.9841 1.46722 54.8017 1.28484C54.6194 1.10246 54.372 1 54.1141 1H50.3721V2.16076C50.3721 2.46193 50.4917 2.75078 50.7047 2.96374C50.9176 3.17671 51.2065 3.29635 51.5077 3.29635H52.2496C52.3768 3.29635 52.4988 3.3468 52.5888 3.43664C52.6788 3.52648 52.7296 3.64836 52.7298 3.77555V22.7282" stroke="#AEAEAE" stroke-width="1.5" stroke-miterlimit="10"/>
<path d="M26.6978 9.01855H13.4412V21.4345H26.6978V9.01855Z" stroke="#AEAEAE" stroke-width="1.5" stroke-miterlimit="10"/>
<path d="M29.0908 9.01855H39.9544L42.0897 26.6957C42.1139 26.8953 42.0955 27.0977 42.0358 27.2896C41.976 27.4816 41.8763 27.6587 41.7431 27.8092C41.6099 27.9598 41.4463 28.0805 41.2632 28.1632C41.08 28.246 40.8813 28.289 40.6803 28.2893H38.0829C37.4499 28.2905 36.8316 28.098 36.3111 27.7377L29.0908 22.7302V9.01855Z" stroke="#AEAEAE" stroke-width="1.5" stroke-miterlimit="10"/>
<path d="M13.4412 10.719H26.6978" stroke="#AEAEAE" stroke-width="1.5" stroke-miterlimit="10"/>
<path d="M59.9731 25.6526H73.2297" stroke="#AEAEAE" stroke-width="1.5" stroke-miterlimit="10"/>
<path d="M29.0908 10.719H40.1598" stroke="#AEAEAE" stroke-width="1.5" stroke-miterlimit="10"/>
</svg>
