<svg width="82" height="62" viewBox="0 0 82 62" fill="none" xmlns="http://www.w3.org/2000/svg">
<path fill-rule="evenodd" clip-rule="evenodd" d="M15.749 26.6406H20.1866L20.4968 28.046C22.6221 28.3734 24.6623 29.1167 26.5006 30.2332L27.6403 29.356L31.039 32.2105L30.3739 33.4909C31.7914 35.1097 32.8785 36.9908 33.5739 39.0277L35.006 39.0886L35.3914 41.2764L35.7768 43.4628L34.4505 44.0114C34.4533 44.1231 34.4552 44.2354 34.4564 44.3484L34.4565 44.3555C34.4588 46.3972 34.0814 48.4199 33.3452 50.3207L34.4048 51.2904L33.2866 53.2043L33.2839 53.209L32.1801 55.1302L30.8098 54.6951C29.4606 56.3699 27.7986 57.766 25.9165 58.8054L26.1107 60.2344L24.0241 60.9957L21.9377 61.7555L21.1678 60.5418C19.0571 60.9606 16.8847 60.9603 14.7741 60.541L13.9909 61.7571L11.9089 60.9989L9.8234 60.238L10.0133 58.8122C8.13054 57.773 6.46799 56.3766 5.11864 54.7012L3.74844 55.1363L1.5381 51.2891L2.59198 50.3184C1.85499 48.4173 1.47739 46.394 1.48013 44.3518C1.48013 44.2384 1.4814 44.1253 1.4838 44.0127L0.156738 43.4638L0.92623 39.0896L2.35972 39.0287C3.05504 36.9919 4.14209 35.111 5.55946 33.4922L4.89314 32.2115L8.29449 29.3571L9.4339 30.2342C11.2725 29.1172 13.313 28.3736 15.4388 28.0461L15.749 26.6406ZM16.954 28.1406L16.6763 29.3987L16.1485 29.4624C13.8835 29.736 11.7118 30.5274 9.80115 31.7755L9.35541 32.0666L8.33508 31.2813L6.77931 32.5869L7.37563 33.733L7.01341 34.1206C5.45478 35.7885 4.29748 37.791 3.62993 39.9751L3.4748 40.4827L2.19507 40.5371L1.84307 42.538L3.02829 43.0282L3.0013 43.5571C2.98777 43.8222 2.98013 44.0875 2.98013 44.3523L2.98012 44.3533C2.97735 46.3709 3.38303 48.368 4.17265 50.2242L4.37974 50.7111L3.43558 51.5807L3.94253 52.4631L4.44677 53.3407L5.66854 52.9527L5.98822 53.377C7.36275 55.2011 9.13353 56.6884 11.1666 57.7266L11.639 57.9678L11.4693 59.2418L12.4222 59.5894L13.3785 59.9377L14.0801 58.8484L14.5945 58.968C16.8171 59.4849 19.1285 59.4849 21.3512 58.968L21.8694 58.8475L22.5581 59.9332L23.51 59.5866L24.4617 59.2393L24.2882 57.9625L24.7618 57.7206C26.7948 56.6821 28.5656 55.1948 29.9404 53.3708L30.2601 52.9467L31.4818 53.3347L31.9887 52.4523L32.4987 51.5794L31.5563 50.7168L31.7639 50.2284C32.5526 48.3731 32.9583 46.3771 32.9565 44.3607C32.9535 44.0868 32.9458 43.82 32.9323 43.5561L32.9053 43.0272L34.0905 42.537L33.9142 41.5368L33.7379 40.5361L32.4588 40.4817L32.3036 39.9741C31.6361 37.79 30.4788 35.7875 28.9202 34.1196L28.5582 33.7322L29.1537 32.5859L27.5993 31.2804L26.5792 32.0656L26.1335 31.7745C24.2231 30.5269 22.0517 29.7358 19.7872 29.4624L19.2593 29.3987L18.9816 28.1406H16.954Z" fill="#AEAEAE"/>
<path fill-rule="evenodd" clip-rule="evenodd" d="M17.9672 36.3613C13.5605 36.3613 9.98682 39.9375 9.98682 44.3506C9.98682 48.7637 13.5605 52.3398 17.9672 52.3398C22.3739 52.3398 25.9475 48.7637 25.9475 44.3506C25.9475 39.9375 22.3739 36.3613 17.9672 36.3613ZM8.48682 44.3506C8.48682 39.1105 12.7306 34.8613 17.9672 34.8613C23.2037 34.8613 27.4475 39.1105 27.4475 44.3506C27.4475 49.5906 23.2037 53.8398 17.9672 53.8398C12.7306 53.8398 8.48682 49.5906 8.48682 44.3506Z" fill="#AEAEAE"/>
<path fill-rule="evenodd" clip-rule="evenodd" d="M17.9674 41.3457C16.3107 41.3457 14.9663 42.6903 14.9663 44.3507C14.9663 46.0111 16.3107 47.3557 17.9674 47.3557C19.6241 47.3557 20.9684 46.0111 20.9684 44.3507C20.9684 42.6903 19.6241 41.3457 17.9674 41.3457ZM13.4663 44.3507C13.4663 41.8634 15.4808 39.8457 17.9674 39.8457C20.454 39.8457 22.4684 41.8634 22.4684 44.3507C22.4684 46.838 20.454 48.8557 17.9674 48.8557C15.4808 48.8557 13.4663 46.838 13.4663 44.3507Z" fill="#AEAEAE"/>
<path fill-rule="evenodd" clip-rule="evenodd" d="M64.7017 33.2607H68.5012L68.7524 34.4064C70.4067 34.6741 71.9955 35.2526 73.4349 36.1114L74.3602 35.401L75.8118 36.6213L75.8142 36.6233L77.2752 37.8414L76.7328 38.8839C77.8279 40.1543 78.6743 41.6196 79.2279 43.2033L80.3965 43.2532L80.7225 45.126L81.0525 46.9959L79.9671 47.4436C79.9674 47.5027 79.9672 47.5618 79.9665 47.6211C79.9672 49.2407 79.6731 50.8455 79.1001 52.3571L79.9667 53.1454L78.0667 56.4383L76.9513 56.0846C75.8901 57.3824 74.5953 58.4699 73.1341 59.2907L73.288 60.4529L69.7195 61.7534L69.0911 60.7642C67.4451 61.0778 65.7547 61.0779 64.1087 60.7643L63.4813 61.7535L61.6968 61.1024L59.9076 60.4517L60.0692 59.289C58.6091 58.4686 57.3153 57.3816 56.2549 56.0845L55.1386 56.4382L53.2397 53.1471L54.1009 52.3587C53.527 50.8451 53.2326 49.2382 53.2339 47.6163L53.6558 47.6166L53.235 47.443C53.2372 47.2644 53.2428 47.0864 53.252 46.9091L54.001 46.9477L53.7251 47.6167L53.715 47.641L53.6558 47.6166L53.2339 47.6163C53.2339 47.5583 53.2342 47.5009 53.235 47.443L52.1509 46.9959L52.8114 43.2532L53.9766 43.2033C53.9178 43.3713 53.8623 43.5407 53.8102 43.7112L54.5275 43.9304L54.4954 43.1811L53.9766 43.2033C54.5305 41.6196 55.3772 40.1542 56.4726 38.8839L56.7122 39.3444L57.3775 38.9983L56.8296 38.4862C56.7078 38.6165 56.5888 38.7491 56.4726 38.8839L55.9313 37.8435L58.844 35.3967L59.7721 36.111C59.6187 36.2025 59.4671 36.2972 59.3173 36.395L59.7273 37.023L60.1847 36.4287L59.7721 36.111C61.21 35.2531 62.797 34.6747 64.4494 34.4065L64.3375 34.9147L65.07 35.076L64.9798 34.3314C64.8023 34.3529 64.6255 34.378 64.4494 34.4065L64.7017 33.2607ZM65.9074 34.7607L65.6881 35.7566L65.1602 35.8205C63.368 36.0376 61.6495 36.6639 60.1372 37.651L59.6915 37.942L58.8849 37.3211L57.8171 38.2181L58.2877 39.1227L57.9255 39.5103C56.6905 40.832 55.7735 42.4188 55.2448 44.1495L55.0897 44.657L54.0792 44.7003L53.8376 46.069L54.7772 46.4566L54.75 46.9862C54.7392 47.195 54.7339 47.4052 54.7339 47.6169C54.7326 49.2149 55.0547 50.7972 55.6806 52.2672L55.8887 52.7558L55.1408 53.4404L55.8352 54.644L56.8035 54.3372L57.123 54.7614C58.2113 56.2067 59.6141 57.3849 61.2249 58.2068L61.7003 58.4494L61.5603 59.4567L62.2095 59.6928L62.8612 59.9306L63.4058 59.0719L63.9241 59.1924C65.6844 59.6018 67.515 59.6018 69.2753 59.1924L69.7932 59.072L70.3387 59.9307L71.6428 59.4555L71.5093 58.4478L71.9815 58.2068C73.5921 57.3847 74.9949 56.2065 76.0835 54.7613L76.4031 54.3371L77.3703 54.6438L78.0637 53.4421L77.3111 52.7574L77.5197 52.2673C78.1457 50.7972 78.4677 49.2155 78.4665 47.6174L78.4665 47.6079C78.469 47.3999 78.4647 47.1935 78.4535 46.9885L78.4246 46.4572L79.3658 46.069L79.2451 45.385L79.1259 44.7003L78.1146 44.657L77.9596 44.1494C77.4312 42.4187 76.5145 40.8319 75.2798 39.5103L74.9177 39.1227L75.3872 38.2202L74.8513 37.7734L74.8489 37.7715L74.3176 37.3248L73.5143 37.9416L73.0693 37.6511C71.5556 36.6632 69.8355 36.0369 68.0416 35.8206L67.5129 35.7568L67.2945 34.7607H65.9074Z" fill="#AEAEAE"/>
<path fill-rule="evenodd" clip-rule="evenodd" d="M66.6014 41.3584C63.1499 41.3584 60.3506 44.1594 60.3506 47.6162C60.3506 51.073 63.1499 53.874 66.6014 53.874C70.0529 53.874 72.8521 51.073 72.8521 47.6162C72.8521 44.1594 70.0529 41.3584 66.6014 41.3584ZM58.8506 47.6162C58.8506 43.3324 62.32 39.8584 66.6014 39.8584C70.8827 39.8584 74.3521 43.3324 74.3521 47.6162C74.3521 51.9 70.8827 55.374 66.6014 55.374C62.32 55.374 58.8506 51.9 58.8506 47.6162Z" fill="#AEAEAE"/>
<path fill-rule="evenodd" clip-rule="evenodd" d="M66.6014 45.3545C65.355 45.3545 64.3433 46.3661 64.3433 47.6156C64.3433 48.8651 65.355 49.8767 66.6014 49.8767C67.8478 49.8767 68.8595 48.8651 68.8595 47.6156C68.8595 46.3661 67.8478 45.3545 66.6014 45.3545ZM62.8433 47.6156C62.8433 45.5391 64.5251 43.8545 66.6014 43.8545C68.6776 43.8545 70.3595 45.5391 70.3595 47.6156C70.3595 49.6921 68.6776 51.3767 66.6014 51.3767C64.5251 51.3767 62.8433 49.6921 62.8433 47.6156Z" fill="#AEAEAE"/>
<path fill-rule="evenodd" clip-rule="evenodd" d="M54.0598 0H49V1.95439C49 2.46565 49.2236 2.95612 49.6218 3.31787C50.02 3.67964 50.5603 3.88303 51.1239 3.88303H51.6558V21.7856H46.5269L42.5333 6.44708C42.4416 6.09409 42.2354 5.78139 41.9468 5.55814C41.6582 5.33486 41.3036 5.21373 40.9387 5.21387H11.3862C10.9853 5.21418 10.5978 5.36059 10.2971 5.62557C9.99637 5.89052 9.80239 6.25643 9.75129 6.65384L7.98299 20.4896L6.96633 21.6636C6.30077 22.4318 5.46912 23.3913 4.80409 24.1567C4.36176 24.6649 4.11256 25.3127 4.1001 25.9863C4.08767 26.6584 4.31167 27.3135 4.73299 27.8371L4.75645 27.867L4.76004 27.8715C5.1341 28.3393 5.64798 28.6753 6.22662 28.83C6.80515 28.9847 7.41827 28.9499 7.97571 28.7311L9.46341 28.1477C13.4495 26.5839 17.7567 25.999 21.9913 26.5357C22.2702 26.5711 22.5468 26.6103 22.8194 26.6541C28.9941 27.6468 34.2955 31.6125 37.0965 37.2214L40.5686 44.1726H49.0038L49.856 42.4107C51.6807 38.6356 54.7649 35.5974 58.5933 33.9222L58.9119 33.7838C61.9099 32.5512 65.176 32.1181 68.3912 32.5269L68.3949 32.5274L74.1194 33.2267V24.7557C74.1194 23.969 73.8073 23.2144 73.2513 22.6579C72.6954 22.1014 71.9412 21.7886 71.1546 21.7886H56V1.76176C56 1.29477 55.7958 0.846739 55.432 0.516285C55.0682 0.185801 54.5746 0 54.0598 0ZM55.0863 23H54.3104V1.76176C54.3104 1.70091 54.2838 1.64272 54.2367 1.59994C54.1896 1.55718 54.126 1.5333 54.0598 1.5333H50.6896V1.95439C50.6896 2.0595 50.7356 2.16014 50.8171 2.23422C50.8986 2.30827 51.009 2.34973 51.1239 2.34973H51.9597C52.3269 2.34973 52.6791 2.4821 52.9388 2.71754C53.1985 2.95296 53.3446 3.27218 53.3454 3.60512L53.3454 3.60672L53.3454 23H52.7295V23.2856H45.3674L41.0817 6.82502C41.0734 6.79314 41.0547 6.76447 41.0289 6.74452C41.0032 6.72458 40.9716 6.71384 40.9392 6.71387H11.3866C11.3507 6.71394 11.3159 6.72707 11.2887 6.751C11.2615 6.77496 11.2438 6.80814 11.2391 6.84442L9.41348 21.1289L9.26533 21.3001L8.10006 22.6458C7.43431 23.4142 6.60196 24.3745 5.93614 25.1408C5.72526 25.383 5.60579 25.6926 5.59984 26.0141C5.5939 26.3356 5.70134 26.6488 5.90314 26.8987L5.90905 26.906L5.93162 26.9348L5.93315 26.9367C6.10722 27.1536 6.34577 27.3091 6.61406 27.3809C6.88313 27.4528 7.16813 27.4367 7.42743 27.3349L8.91561 26.7513C13.1242 25.1003 17.6843 24.4778 22.18 25.0477C22.4729 25.0848 22.7663 25.1263 23.0575 25.1732C29.7205 26.2444 35.4266 30.5202 38.4385 36.5511L41.4961 42.6726H48.0631L48.5055 41.7579C50.4801 37.6727 53.8234 34.3718 57.9921 32.548L57.9939 32.5471L58.3277 32.4022L58.3344 32.3994C61.5739 31.066 65.1038 30.5971 68.5786 31.0386L68.5804 31.0389L72.6194 31.5323V24.7557C72.6194 24.3664 72.4649 23.9931 72.1901 23.7181C71.9154 23.443 71.5429 23.2886 71.1546 23.2886H55.0863V23Z" fill="#AEAEAE"/>
<path fill-rule="evenodd" clip-rule="evenodd" d="M12.6909 8.06152H27.4475V21.9902H12.6909V8.06152ZM14.1909 9.56152V20.4902H25.9475V9.56152H14.1909Z" fill="#AEAEAE"/>
<path fill-rule="evenodd" clip-rule="evenodd" d="M28.3408 8.06152H40.6194L42.8343 26.4168C42.8343 26.4169 42.8343 26.4167 42.8343 26.4168C42.8711 26.7216 42.8431 27.0311 42.7519 27.3242C42.6608 27.6175 42.5085 27.8881 42.3052 28.1182C42.1018 28.3484 41.852 28.5329 41.5722 28.6594C41.2924 28.7859 40.9889 28.8517 40.6817 28.8523L40.6803 28.8523L38.0842 28.8523C38.0838 28.8523 38.0834 28.8523 38.083 28.8523C38.083 28.8523 38.0831 28.8523 38.083 28.8523C37.2973 28.8534 36.5299 28.6141 35.8839 28.1665L28.3408 22.9297V8.06152ZM29.8408 9.56152V22.145L36.7382 26.9335C37.133 27.2071 37.6017 27.3531 38.0816 27.3523L38.0829 27.3523L40.6788 27.3523C40.6791 27.3523 40.6786 27.3523 40.6788 27.3523C40.7735 27.352 40.8678 27.3317 40.9541 27.2926C41.0407 27.2535 41.118 27.1964 41.181 27.1251C41.244 27.0538 41.2913 26.9699 41.3196 26.8788C41.3479 26.7878 41.3566 26.6918 41.3451 26.5971L39.2895 9.56152H29.8408Z" fill="#AEAEAE"/>
<path fill-rule="evenodd" clip-rule="evenodd" d="M26.6975 11.2637H13.4409V9.76367H26.6975V11.2637Z" fill="#AEAEAE"/>
<path fill-rule="evenodd" clip-rule="evenodd" d="M73.2297 26.2129H59.9731V24.7129H73.2297V26.2129Z" fill="#AEAEAE"/>
<path fill-rule="evenodd" clip-rule="evenodd" d="M40.1598 11.2637H29.0908V9.76367H40.1598V11.2637Z" fill="#AEAEAE"/>
</svg>
