<svg width="55" height="62" viewBox="0 0 55 62" fill="none" xmlns="http://www.w3.org/2000/svg">
<path d="M16.5403 19.6038H17.8648C18.1451 19.6038 18.4138 19.7151 18.612 19.9132C18.8101 20.1114 18.9214 20.3801 18.9214 20.6604V53.3826H15.4814V20.6604C15.4814 20.5214 15.5088 20.3838 15.5621 20.2555C15.6153 20.1272 15.6934 20.0106 15.7917 19.9124C15.8901 19.8143 16.0068 19.7365 16.1353 19.6835C16.2637 19.6306 16.4014 19.6035 16.5403 19.6038V19.6038Z" stroke="#AEAEAE" stroke-width="1.5" stroke-miterlimit="10"/>
<path d="M26.8226 19.6038H28.1471C28.4273 19.6038 28.6961 19.7151 28.8942 19.9132C29.0924 20.1114 29.2037 20.3801 29.2037 20.6604V53.3826H25.7629V20.6604C25.7629 20.3801 25.8743 20.1114 26.0724 19.9132C26.2706 19.7151 26.5393 19.6038 26.8195 19.6038H26.8226Z" stroke="#AEAEAE" stroke-width="1.5" stroke-miterlimit="10"/>
<path d="M37.104 19.6038H38.4286C38.7088 19.6038 38.9775 19.7151 39.1757 19.9132C39.3738 20.1114 39.4852 20.3801 39.4852 20.6604V53.3826H36.0452V20.6604C36.0452 20.5214 36.0726 20.3838 36.1258 20.2555C36.1791 20.1272 36.2571 20.0106 36.3554 19.9124C36.4538 19.8143 36.5705 19.7365 36.699 19.6835C36.8274 19.6306 36.9651 19.6035 37.104 19.6038V19.6038Z" stroke="#AEAEAE" stroke-width="1.5" stroke-miterlimit="10"/>
<path d="M44.661 53.3826H10.3078C9.6605 53.3826 9.13574 53.9073 9.13574 54.5546V56.0188C9.13574 56.6661 9.6605 57.1909 10.3078 57.1909H44.661C45.3083 57.1909 45.8331 56.6661 45.8331 56.0188V54.5546C45.8331 53.9073 45.3083 53.3826 44.661 53.3826Z" stroke="#AEAEAE" stroke-width="1.5" stroke-miterlimit="10"/>
<path d="M46.9547 57.1917H8.01436C7.36704 57.1917 6.84229 57.7164 6.84229 58.3637V59.8279C6.84229 60.4752 7.36704 61 8.01436 61H46.9547C47.6021 61 48.1268 60.4752 48.1268 59.8279V58.3637C48.1268 57.7164 47.6021 57.1917 46.9547 57.1917Z" stroke="#AEAEAE" stroke-width="1.5" stroke-miterlimit="10"/>
<path d="M44.5093 7.2959V7.43703" stroke="#AEAEAE" stroke-width="1.5" stroke-miterlimit="10"/>
<path d="M12.1003 8.19775V53.3827H42.8694V8.19775" stroke="#AEAEAE" stroke-width="1.5" stroke-miterlimit="10"/>
<path d="M49.0542 1C49.9722 1.00015 50.8725 1.25359 51.6557 1.73242C52.439 2.21126 53.075 2.89692 53.4937 3.71393C53.9124 4.53094 54.0975 5.44764 54.0288 6.36311C53.96 7.27858 53.64 8.15733 53.104 8.90264" stroke="#AEAEAE" stroke-width="1.5" stroke-miterlimit="10"/>
<path d="M51.3933 8.9027C51.7184 8.39488 51.9162 7.81617 51.97 7.21563C52.0239 6.61509 51.9321 6.01043 51.7025 5.45291C51.4729 4.89538 51.1123 4.40143 50.6512 4.01294C50.1901 3.62444 49.6421 3.35285 49.0537 3.22119" stroke="#AEAEAE" stroke-width="1.5" stroke-miterlimit="10" stroke-linecap="round"/>
<path d="M44.7131 5.59083C45.0259 4.73625 45.6388 4.02456 46.4375 3.58841C47.2362 3.15227 48.1662 3.02142 49.0543 3.22026" stroke="#AEAEAE" stroke-width="1.5" stroke-miterlimit="10"/>
<path d="M44.7131 5.59106C44.6114 5.86829 44.543 6.15659 44.5093 6.44993" stroke="#AEAEAE" stroke-width="1.5" stroke-miterlimit="10"/>
<path d="M44.5095 6.45068C44.4932 6.5935 44.4849 6.73712 44.4846 6.88087L44.5095 7.29521" stroke="#AEAEAE" stroke-width="1.5" stroke-miterlimit="10"/>
<path d="M44.5093 7.29517C44.5436 7.60481 44.6161 7.90901 44.7251 8.20083" stroke="#AEAEAE" stroke-width="1.5" stroke-miterlimit="10"/>
<path d="M53.1041 8.90255C52.6426 9.54633 52.0343 10.0708 51.3296 10.4324C50.6249 10.794 49.8441 10.9824 49.052 10.9818C47.9116 10.9818 46.9697 10.6701 46.1297 10.0263L45.8935 9.84368C45.6134 9.62515 45.3721 9.36109 45.1795 9.06255L45.0565 8.87236C44.9223 8.6579 44.8102 8.43031 44.7222 8.19312" stroke="#AEAEAE" stroke-width="1.5" stroke-miterlimit="10"/>
<path d="M38.0195 1H49.0535" stroke="#AEAEAE" stroke-width="1.5" stroke-miterlimit="10"/>
<path d="M8.92896 9.95542C8.39857 10.3612 7.79207 10.6564 7.14546 10.8234C6.49884 10.9904 5.82527 11.0259 5.16469 10.9277C4.50411 10.8295 3.86997 10.5997 3.29989 10.2518C2.7298 9.90394 2.23538 9.44513 1.84595 8.90259" stroke="#AEAEAE" stroke-width="1.5" stroke-miterlimit="10"/>
<path d="M5.8981 1C4.97986 0.999736 4.07935 1.25287 3.29574 1.73154C2.51213 2.2102 1.87581 2.89583 1.45685 3.71292C1.03789 4.53001 0.852533 5.44687 0.921199 6.36254C0.989864 7.27821 1.30989 8.15717 1.84602 8.90264" stroke="#AEAEAE" stroke-width="1.5" stroke-miterlimit="10"/>
<path d="M3.55921 8.9027C3.23415 8.39488 3.03632 7.81617 2.9825 7.21563C2.92868 6.61509 3.02045 6.01043 3.25004 5.45291C3.47963 4.89538 3.84026 4.40143 4.30136 4.01294C4.76246 3.62444 5.31044 3.35285 5.89883 3.22119" stroke="#AEAEAE" stroke-width="1.5" stroke-miterlimit="10" stroke-linecap="round"/>
<path d="M10.24 5.59106C10.3651 5.9306 10.4401 6.28653 10.4627 6.64767V7.1005C10.4409 7.4759 10.3625 7.84587 10.2302 8.19786" stroke="#AEAEAE" stroke-width="1.5" stroke-miterlimit="10"/>
<path d="M10.2271 8.19775C10.1351 8.44449 10.0172 8.68078 9.87537 8.90266C9.58858 9.30191 9.31839 9.65738 8.92896 9.95549" stroke="#AEAEAE" stroke-width="1.5" stroke-miterlimit="10"/>
<path d="M5.89819 3.2212C6.78623 3.02244 7.71623 3.15323 8.515 3.5892C9.31378 4.02517 9.92686 4.73661 10.2401 5.59101" stroke="#AEAEAE" stroke-width="1.5" stroke-miterlimit="10"/>
<path d="M10.4597 7.43701H10.4265" stroke="#AEAEAE" stroke-width="1.5" stroke-miterlimit="10"/>
<path d="M5.89819 1H17.2031" stroke="#AEAEAE" stroke-width="1.5" stroke-miterlimit="10"/>
<path d="M8.92822 9.95546V9.90942" stroke="#AEAEAE" stroke-width="1.5" stroke-miterlimit="10"/>
<path d="M18.3757 1H36.5757" stroke="#AEAEAE" stroke-width="1.5" stroke-miterlimit="10"/>
<path d="M36.5759 1H38.0197" stroke="#AEAEAE" stroke-width="1.5" stroke-miterlimit="10"/>
<path d="M17.2031 1H18.376" stroke="#AEAEAE" stroke-width="1.5" stroke-miterlimit="10"/>
<path d="M10.2393 5.5918H44.7132" stroke="#AEAEAE" stroke-width="1.5" stroke-miterlimit="10"/>
<path d="M44.7252 8.19775H42.8694" stroke="#AEAEAE" stroke-width="1.5" stroke-miterlimit="10"/>
<path d="M12.1005 8.19775H10.2273" stroke="#AEAEAE" stroke-width="1.5" stroke-miterlimit="10"/>
<path d="M12.1003 8.19775H42.8694" stroke="#AEAEAE" stroke-width="1.5" stroke-miterlimit="10"/>
</svg>
