<svg width="55" height="62" viewBox="0 0 55 62" fill="none" xmlns="http://www.w3.org/2000/svg">
<path d="M16.5403 19.4082H17.8648C18.1451 19.4082 18.4138 19.5196 18.612 19.718C18.8101 19.9164 18.9214 20.1854 18.9214 20.4659V53.2219H15.4814V20.4659C15.4814 20.3268 15.5088 20.1891 15.5621 20.0606C15.6153 19.9321 15.6934 19.8154 15.7917 19.7172C15.8901 19.6189 16.0068 19.5411 16.1353 19.4881C16.2637 19.435 16.4014 19.4079 16.5403 19.4082V19.4082Z" stroke="white" stroke-width="1.5" stroke-miterlimit="10"/>
<path d="M26.8228 19.4082H28.1474C28.4276 19.4082 28.6964 19.5196 28.8945 19.718C29.0927 19.9164 29.204 20.1854 29.204 20.4659V53.2219H25.7632V20.4659C25.7632 20.1854 25.8745 19.9164 26.0727 19.718C26.2708 19.5196 26.5396 19.4082 26.8198 19.4082H26.8228Z" stroke="white" stroke-width="1.5" stroke-miterlimit="10"/>
<path d="M37.1043 19.4082H38.4288C38.709 19.4082 38.9778 19.5196 39.1759 19.718C39.3741 19.9164 39.4854 20.1854 39.4854 20.4659V53.2219H36.0454V20.4659C36.0454 20.3268 36.0728 20.1891 36.1261 20.0606C36.1793 19.9321 36.2573 19.8154 36.3557 19.7172C36.454 19.6189 36.5708 19.5411 36.6992 19.4881C36.8277 19.435 36.9653 19.4079 37.1043 19.4082V19.4082Z" stroke="white" stroke-width="1.5" stroke-miterlimit="10"/>
<path d="M44.661 53.2217H10.3078C9.6605 53.2217 9.13574 53.7466 9.13574 54.3941V55.8586C9.13574 56.5061 9.6605 57.031 10.3078 57.031H44.661C45.3084 57.031 45.8331 56.5061 45.8331 55.8586V54.3941C45.8331 53.7466 45.3084 53.2217 44.661 53.2217Z" stroke="white" stroke-width="1.5" stroke-miterlimit="10"/>
<path d="M46.9548 57.0342H8.01436C7.36704 57.0342 6.84229 57.5593 6.84229 58.207V59.6721C6.84229 60.3199 7.36704 60.845 8.01436 60.845H46.9548C47.6021 60.845 48.1268 60.3199 48.1268 59.6721V58.207C48.1268 57.5593 47.6021 57.0342 46.9548 57.0342Z" stroke="white" stroke-width="1.5" stroke-miterlimit="10"/>
<path d="M44.5093 7.08789V7.22902" stroke="white" stroke-width="1.5" stroke-miterlimit="10"/>
<path d="M12.1006 7.99023V53.2217H42.8696V7.99023" stroke="white" stroke-width="1.5" stroke-miterlimit="10"/>
<path d="M49.0542 0.785156C49.9722 0.785309 50.8724 1.039 51.6557 1.5183C52.439 1.9976 53.075 2.68393 53.4937 3.50175C53.9124 4.31957 54.0975 5.23716 54.0288 6.15353C53.96 7.0699 53.64 7.94951 53.104 8.69556" stroke="white" stroke-width="1.5" stroke-miterlimit="10"/>
<path d="M51.3933 8.69312C51.7184 8.18478 51.9162 7.60549 51.97 7.00434C52.0238 6.4032 51.9321 5.79792 51.7025 5.23983C51.4729 4.68174 51.1123 4.18729 50.6512 3.7984C50.1901 3.40952 49.6421 3.13765 49.0537 3.00586" stroke="white" stroke-width="1.5" stroke-miterlimit="10" stroke-linecap="round"/>
<path d="M44.7134 5.37623C45.0262 4.52165 45.639 3.80996 46.4377 3.37381C47.2364 2.93767 48.1665 2.80682 49.0545 3.00567" stroke="white" stroke-width="1.5" stroke-miterlimit="10"/>
<path d="M44.7131 5.38086C44.6114 5.65808 44.543 5.94639 44.5093 6.23973" stroke="white" stroke-width="1.5" stroke-miterlimit="10"/>
<path d="M44.5093 6.24121C44.493 6.38403 44.4846 6.52765 44.4844 6.6714L44.5093 7.08574" stroke="white" stroke-width="1.5" stroke-miterlimit="10"/>
<path d="M44.5093 7.08594C44.5436 7.39558 44.6161 7.69978 44.7251 7.9916" stroke="white" stroke-width="1.5" stroke-miterlimit="10"/>
<path d="M53.1041 8.69479C52.6426 9.33857 52.0343 9.86303 51.3296 10.2246C50.6249 10.5863 49.8441 10.7746 49.052 10.774C47.9116 10.774 46.9697 10.4623 46.1297 9.81856L45.8935 9.63592C45.6134 9.41739 45.3721 9.15333 45.1795 8.85479L45.0565 8.6646C44.9223 8.45014 44.8102 8.22254 44.7222 7.98535" stroke="white" stroke-width="1.5" stroke-miterlimit="10"/>
<path d="M38.0195 0.785156H49.0535" stroke="white" stroke-width="1.5" stroke-miterlimit="10"/>
<path d="M8.92921 9.74814C8.39881 10.154 7.79232 10.4491 7.1457 10.6161C6.49908 10.7832 5.82551 10.8186 5.16493 10.7204C4.50435 10.6222 3.87021 10.3924 3.30013 10.0445C2.73005 9.69666 2.23563 9.23785 1.84619 8.69531" stroke="white" stroke-width="1.5" stroke-miterlimit="10"/>
<path d="M5.89807 0.785156C4.97984 0.784892 4.07934 1.03828 3.29573 1.51741C2.51212 1.99655 1.87581 2.68285 1.45685 3.50074C1.03789 4.31863 0.852533 5.23639 0.921198 6.15296C0.989864 7.06953 1.30988 7.94936 1.84602 8.69556" stroke="white" stroke-width="1.5" stroke-miterlimit="10"/>
<path d="M3.55946 8.69312C3.2344 8.18478 3.03657 7.60549 2.98274 7.00434C2.92892 6.4032 3.0207 5.79792 3.25029 5.23983C3.47988 4.68174 3.84051 4.18729 4.30162 3.7984C4.76272 3.40952 5.31071 3.13765 5.89911 3.00586" stroke="white" stroke-width="1.5" stroke-miterlimit="10" stroke-linecap="round"/>
<path d="M10.2398 5.38086C10.3649 5.7204 10.4399 6.07633 10.4624 6.43746V6.89029C10.4407 7.2657 10.3623 7.63566 10.23 7.98765" stroke="white" stroke-width="1.5" stroke-miterlimit="10"/>
<path d="M10.2273 7.99023C10.1353 8.23697 10.0174 8.47326 9.87561 8.69514C9.58882 9.09439 9.31863 9.44986 8.9292 9.74797" stroke="white" stroke-width="1.5" stroke-miterlimit="10"/>
<path d="M5.89795 3.0066C6.78598 2.80785 7.71599 2.93863 8.51476 3.3746C9.31353 3.81057 9.92662 4.52201 10.2398 5.37641" stroke="white" stroke-width="1.5" stroke-miterlimit="10"/>
<path d="M10.4595 7.22852H10.4263" stroke="white" stroke-width="1.5" stroke-miterlimit="10"/>
<path d="M5.89795 0.785156H17.2029" stroke="white" stroke-width="1.5" stroke-miterlimit="10"/>
<path d="M8.92822 9.74916V9.70312" stroke="white" stroke-width="1.5" stroke-miterlimit="10"/>
<path d="M18.376 0.785156H36.576" stroke="white" stroke-width="1.5" stroke-miterlimit="10"/>
<path d="M36.5757 0.785156H38.0195" stroke="white" stroke-width="1.5" stroke-miterlimit="10"/>
<path d="M17.2031 0.785156H18.376" stroke="white" stroke-width="1.5" stroke-miterlimit="10"/>
<path d="M10.2393 5.38184H44.7132" stroke="white" stroke-width="1.5" stroke-miterlimit="10"/>
<path d="M44.725 7.99023H42.8691" stroke="white" stroke-width="1.5" stroke-miterlimit="10"/>
<path d="M12.1003 7.99023H10.2271" stroke="white" stroke-width="1.5" stroke-miterlimit="10"/>
<path d="M12.1006 7.99023H42.8696" stroke="white" stroke-width="1.5" stroke-miterlimit="10"/>
</svg>
