<svg width="56" height="62" viewBox="0 0 56 62" fill="none" xmlns="http://www.w3.org/2000/svg">
<path d="M20.2022 56.7755C21.9813 56.7755 23.4235 55.3298 23.4235 53.5465C23.4235 51.7631 21.9813 50.3174 20.2022 50.3174C18.4232 50.3174 16.981 51.7631 16.981 53.5465C16.981 55.3298 18.4232 56.7755 20.2022 56.7755Z" stroke="#AEAEAE" stroke-width="1.5" stroke-miterlimit="10"/>
<path d="M20.2022 60.9999C24.3087 60.9999 27.6377 57.6629 27.6377 53.5464C27.6377 49.4299 24.3087 46.0928 20.2022 46.0928C16.0956 46.0928 12.7666 49.4299 12.7666 53.5464C12.7666 57.6629 16.0956 60.9999 20.2022 60.9999Z" stroke="#AEAEAE" stroke-width="1.5" stroke-miterlimit="10"/>
<path d="M47.1832 56.7755C48.9622 56.7755 50.4044 55.3298 50.4044 53.5465C50.4044 51.7631 48.9622 50.3174 47.1832 50.3174C45.4041 50.3174 43.9619 51.7631 43.9619 53.5465C43.9619 55.3298 45.4041 56.7755 47.1832 56.7755Z" stroke="#AEAEAE" stroke-width="1.5" stroke-miterlimit="10"/>
<path d="M47.1831 60.9999C51.2897 60.9999 54.6187 57.6629 54.6187 53.5464C54.6187 49.4299 51.2897 46.0928 47.1831 46.0928C43.0766 46.0928 39.7476 49.4299 39.7476 53.5464C39.7476 57.6629 43.0766 60.9999 47.1831 60.9999Z" stroke="#AEAEAE" stroke-width="1.5" stroke-miterlimit="10"/>
<path d="M6.60149 22.1808V17.6247C6.60149 17.6247 6.92079 13.486 4.58028 13.486H1.68214C1.50123 13.486 1.32772 13.4139 1.19979 13.2857C1.07187 13.1575 1 12.9835 1 12.8022V12.8022C0.9999 12.7123 1.01747 12.6233 1.05171 12.5403C1.08594 12.4572 1.13617 12.3817 1.19952 12.3182C1.26288 12.2546 1.33811 12.2041 1.42092 12.1697C1.50373 12.1353 1.5925 12.1176 1.68214 12.1176H4.82319C4.82319 12.1176 7.98411 11.8251 7.98411 17.1507V22.1831H6.60149" stroke="#AEAEAE" stroke-width="1.5" stroke-miterlimit="10"/>
<path d="M33.2211 22.1807H6.60156C6.60156 33.9729 11.6431 43.5299 23.4068 43.5299H41.5779C45.0366 43.5297 48.3536 42.1522 50.7992 39.7006C53.2448 37.2489 54.6187 33.9237 54.6187 30.4566V22.1807" stroke="#AEAEAE" stroke-width="1.5" stroke-miterlimit="10"/>
<path d="M35.7998 1.20435L35.1956 1.45321C33.3989 2.19452 31.4564 2.51255 29.5177 2.3828H29.4673L35.0909 19.9662" stroke="#AEAEAE" stroke-width="1.5" stroke-miterlimit="10"/>
<path d="M35.7998 1.20444C45.8891 -0.664698 54.6186 10.5961 54.6186 22.1808" stroke="#AEAEAE" stroke-width="1.5" stroke-miterlimit="10"/>
<path d="M37.7195 22.1807H54.6187" stroke="#AEAEAE" stroke-width="1.5" stroke-miterlimit="10"/>
<path d="M35.7998 1.20435V19.9532" stroke="#AEAEAE" stroke-width="1.5" stroke-miterlimit="10"/>
<path d="M37.7194 22.1809C37.7191 21.6405 37.5251 21.1183 37.1727 20.7094C36.8203 20.3005 36.3331 20.0322 35.7998 19.9534" stroke="#AEAEAE" stroke-width="1.5" stroke-miterlimit="10"/>
<path d="M33.2209 22.1808C33.2211 21.6492 33.4087 21.1348 33.7506 20.7284C34.0925 20.3221 34.5667 20.05 35.0894 19.9602" stroke="#AEAEAE" stroke-width="1.5" stroke-miterlimit="10"/>
<path d="M37.7194 22.1807C37.7085 22.7714 37.4668 23.3344 37.0462 23.7483C36.6255 24.1623 36.0596 24.3942 35.4702 24.3942C34.8807 24.3942 34.3148 24.1623 33.8942 23.7483C33.4736 23.3344 33.2318 22.7714 33.2209 22.1807" stroke="#AEAEAE" stroke-width="1.5" stroke-miterlimit="10"/>
<path d="M35.7998 19.9533C35.5643 19.9152 35.324 19.9178 35.0894 19.961" stroke="#AEAEAE" stroke-width="1.5" stroke-miterlimit="10"/>
<path d="M24.344 47.3556L40.9323 43.53" stroke="#AEAEAE" stroke-width="1.5" stroke-miterlimit="10"/>
<path d="M42.312 47.9169L25.6938 43.53" stroke="#AEAEAE" stroke-width="1.5" stroke-miterlimit="10"/>
<path d="M6.59985 25.354H22.0217" stroke="#AEAEAE" stroke-width="1.5" stroke-miterlimit="10"/>
</svg>
