<svg width="56" height="62" viewBox="0 0 56 62" fill="none" xmlns="http://www.w3.org/2000/svg">
<path d="M20.2022 56.6179C21.9813 56.6179 23.4235 55.1708 23.4235 53.3856C23.4235 51.6005 21.9813 50.1533 20.2022 50.1533C18.4232 50.1533 16.981 51.6005 16.981 53.3856C16.981 55.1708 18.4232 56.6179 20.2022 56.6179Z" stroke="#AEAEAE" stroke-width="1.5" stroke-miterlimit="10"/>
<path d="M20.2021 60.8464C24.3087 60.8464 27.6377 57.5059 27.6377 53.3851C27.6377 49.2644 24.3087 45.9238 20.2021 45.9238C16.0956 45.9238 12.7666 49.2644 12.7666 53.3851C12.7666 57.5059 16.0956 60.8464 20.2021 60.8464Z" stroke="#AEAEAE" stroke-width="1.5" stroke-miterlimit="10"/>
<path d="M47.1832 56.6179C48.9622 56.6179 50.4044 55.1708 50.4044 53.3856C50.4044 51.6005 48.9622 50.1533 47.1832 50.1533C45.4041 50.1533 43.9619 51.6005 43.9619 53.3856C43.9619 55.1708 45.4041 56.6179 47.1832 56.6179Z" stroke="#AEAEAE" stroke-width="1.5" stroke-miterlimit="10"/>
<path d="M47.1831 60.8464C51.2897 60.8464 54.6187 57.5059 54.6187 53.3851C54.6187 49.2644 51.2897 45.9238 47.1831 45.9238C43.0766 45.9238 39.7476 49.2644 39.7476 53.3851C39.7476 57.5059 43.0766 60.8464 47.1831 60.8464Z" stroke="#AEAEAE" stroke-width="1.5" stroke-miterlimit="10"/>
<path d="M6.60151 21.9874V17.4267C6.60151 17.4267 6.92081 13.2838 4.58029 13.2838H1.68214C1.50123 13.2838 1.32772 13.2116 1.1998 13.0833C1.07187 12.9549 1 12.7808 1 12.5993V12.5993C0.9999 12.5093 1.01747 12.4202 1.05171 12.3371C1.08594 12.2539 1.13617 12.1784 1.19953 12.1148C1.26288 12.0511 1.33811 12.0006 1.42092 11.9662C1.50373 11.9317 1.5925 11.914 1.68214 11.914H4.82321C4.82321 11.914 7.98413 11.6212 7.98413 16.9523V21.9897H6.60151" stroke="#AEAEAE" stroke-width="1.5" stroke-miterlimit="10"/>
<path d="M33.2211 21.9873H6.60156C6.60156 33.7917 11.6431 43.3586 23.4068 43.3586H41.5778C45.0366 43.3584 48.3536 41.9796 50.7992 39.5253C53.2448 37.0711 54.6187 33.7426 54.6187 30.2719V21.9873" stroke="#AEAEAE" stroke-width="1.5" stroke-miterlimit="10"/>
<path d="M35.7998 0.989258L35.1956 1.23838C33.3989 1.98046 31.4564 2.29882 29.5177 2.16893H29.4673L35.0909 19.7705" stroke="#AEAEAE" stroke-width="1.5" stroke-miterlimit="10"/>
<path d="M35.7998 0.989806C45.889 -0.881242 54.6186 10.391 54.6186 21.9875" stroke="#AEAEAE" stroke-width="1.5" stroke-miterlimit="10"/>
<path d="M37.7197 21.9873H54.6189" stroke="#AEAEAE" stroke-width="1.5" stroke-miterlimit="10"/>
<path d="M35.7998 0.989258V19.7576" stroke="#AEAEAE" stroke-width="1.5" stroke-miterlimit="10"/>
<path d="M37.7194 21.9853C37.7191 21.445 37.5251 20.9227 37.1727 20.5138C36.8203 20.1049 36.3331 19.8366 35.7998 19.7578" stroke="#AEAEAE" stroke-width="1.5" stroke-miterlimit="10"/>
<path d="M33.2212 21.9853C33.2213 21.4537 33.4089 20.9392 33.7508 20.5329C34.0927 20.1265 34.5669 19.8544 35.0896 19.7646" stroke="#AEAEAE" stroke-width="1.5" stroke-miterlimit="10"/>
<path d="M37.7196 21.9873C37.7088 22.5781 37.467 23.141 37.0464 23.5549C36.6258 23.9689 36.0599 24.2008 35.4704 24.2008C34.881 24.2008 34.3151 23.9689 33.8944 23.5549C33.4738 23.141 33.2321 22.5781 33.2212 21.9873" stroke="#AEAEAE" stroke-width="1.5" stroke-miterlimit="10"/>
<path d="M35.7998 19.7573C35.5643 19.7191 35.324 19.7217 35.0894 19.7649" stroke="#AEAEAE" stroke-width="1.5" stroke-miterlimit="10"/>
<path d="M24.3442 47.186L40.9326 43.3594" stroke="#AEAEAE" stroke-width="1.5" stroke-miterlimit="10"/>
<path d="M42.312 47.7485L25.6938 43.3594" stroke="#AEAEAE" stroke-width="1.5" stroke-miterlimit="10"/>
<path d="M6.6001 25.1641H22.022" stroke="#AEAEAE" stroke-width="1.5" stroke-miterlimit="10"/>
</svg>
