<svg width="51" height="62" viewBox="0 0 51 62" fill="none" xmlns="http://www.w3.org/2000/svg">
<path d="M32.5269 57.511L42.3916 48.4004" stroke="#AEAEAE" stroke-width="1.5" stroke-miterlimit="10"/>
<path d="M9.6748 48.3086L19.4877 57.3718" stroke="#AEAEAE" stroke-width="1.5" stroke-miterlimit="10"/>
<path d="M22.9474 25.4805C22.9474 25.4805 21.3971 27.8394 19.8477 34.7229" stroke="#AEAEAE" stroke-width="1.5" stroke-linejoin="round"/>
<path d="M28.9688 25.4805C28.9688 25.4805 30.5183 27.8394 32.0686 34.7229" stroke="#AEAEAE" stroke-width="1.5" stroke-linejoin="round"/>
<path d="M42.3917 48.4017L37.6074 45.5043L37.982 35.7483C38.0471 34.0567 37.7549 32.3704 37.1244 30.7996L30.5637 14.4595C30.3604 13.9532 29.9667 13.547 29.4673 13.3285C28.9679 13.11 28.4027 13.0965 27.8935 13.2911L27.8472 13.3092C27.356 13.4954 26.9505 13.8563 26.7083 14.3229C26.4661 14.7895 26.4041 15.3291 26.5341 15.8386C27.3563 19.0859 28.9686 25.4853 28.9686 25.4853C26.7131 23.7673 25.5398 25.663 26.0951 27.8944L27.0838 34.3802C27.3888 36.3756 27.4094 38.4042 27.1451 40.4054L26.7705 43.243C26.318 46.674 27.1967 50.1481 29.2254 52.9502L32.5239 57.5105" stroke="#AEAEAE" stroke-width="1.5" stroke-miterlimit="10"/>
<path d="M32.5271 57.5099L32.1949 57.8165C32.0912 57.9122 32.0074 58.0273 31.9482 58.1554C31.8891 58.2834 31.8557 58.4219 31.85 58.5629C31.8443 58.7039 31.8664 58.8447 31.9151 58.9771C31.9638 59.1096 32.038 59.2311 32.1336 59.3348L33.2095 60.4977C33.305 60.6014 33.4199 60.6853 33.5478 60.7445C33.6757 60.8038 33.8139 60.8372 33.9547 60.8429C34.0955 60.8486 34.236 60.8264 34.3682 60.7777C34.5004 60.729 34.6218 60.6547 34.7253 60.559L46.0201 50.1277C46.1237 50.0321 46.2075 49.9169 46.2667 49.7888C46.3259 49.6608 46.3593 49.5223 46.365 49.3813C46.3707 49.2403 46.3485 49.0995 46.2999 48.9671C46.2512 48.8347 46.177 48.7131 46.0813 48.6094L45.0093 47.4458C44.9138 47.342 44.7988 47.2581 44.6709 47.1989C44.543 47.1396 44.4046 47.1062 44.2638 47.1005C44.123 47.0948 43.9824 47.1169 43.8501 47.1657C43.7178 47.2144 43.5964 47.2887 43.4928 47.3844L42.3934 48.4011" stroke="#AEAEAE" stroke-width="1.5" stroke-miterlimit="10"/>
<path d="M9.6748 48.3109L14.3084 45.5063L13.9338 35.7505C13.8686 34.0589 14.1609 32.3726 14.7914 30.8018L21.3506 14.4595C21.5538 13.9532 21.9475 13.547 22.447 13.3285C22.9464 13.11 23.5116 13.0965 24.0208 13.2911L24.0679 13.3092C24.5594 13.4951 24.9653 13.8559 25.2079 14.3225C25.4506 14.7891 25.513 15.3288 25.3833 15.8386C24.5611 19.0858 22.9488 25.4851 22.9488 25.4851C25.1988 23.7632 26.3768 25.6589 25.82 27.8903L24.8273 34.38C24.5221 36.3753 24.5012 38.4039 24.7653 40.4051L25.1407 43.2427C25.5931 46.6737 24.7145 50.1478 22.6857 52.9498L19.4854 57.374" stroke="#AEAEAE" stroke-width="1.5" stroke-miterlimit="10"/>
<path d="M9.67494 48.3112L8.67441 47.3874C8.57084 47.2917 8.44944 47.2173 8.31716 47.1686C8.18488 47.1199 8.0443 47.0977 7.90347 47.1034C7.76263 47.1091 7.62429 47.1425 7.49637 47.2018C7.36844 47.261 7.25343 47.3449 7.15791 47.4487L6.08512 48.6124C5.89243 48.822 5.79066 49.0996 5.80215 49.3842C5.81363 49.6688 5.93743 49.9373 6.14638 50.1307L17.4452 60.5629C17.5487 60.6586 17.67 60.7329 17.8022 60.7816C17.9344 60.8303 18.075 60.8525 18.2157 60.8468C18.3565 60.8411 18.4948 60.8077 18.6226 60.7484C18.7505 60.6892 18.8654 60.6053 18.9609 60.5016L20.0337 59.3379C20.1293 59.2342 20.2035 59.1126 20.2522 58.9802C20.3009 58.8478 20.323 58.707 20.3173 58.566C20.3116 58.425 20.2782 58.2865 20.219 58.1585C20.1599 58.0304 20.0761 57.9152 19.9724 57.8196L19.4886 57.373" stroke="#AEAEAE" stroke-width="1.5" stroke-miterlimit="10"/>
<path d="M25.9573 0.785156H25.9565C25.6828 0.785156 25.4609 1.00728 25.4609 1.28128V8.88278C25.4609 9.15678 25.6828 9.37891 25.9565 9.37891H25.9573C26.231 9.37891 26.4529 9.15678 26.4529 8.88278V1.28128C26.4529 1.00728 26.231 0.785156 25.9573 0.785156Z" fill="#AEAEAE"/>
<path d="M43.4384 8.90118L43.4378 8.90063C43.2443 8.70687 42.9305 8.70687 42.737 8.90063L37.3681 14.2758C37.1745 14.4696 37.1745 14.7837 37.3681 14.9775L37.3686 14.978C37.5622 15.1718 37.8759 15.1718 38.0695 14.978L43.4384 9.60283C43.6319 9.40908 43.6319 9.09494 43.4384 8.90118Z" fill="#AEAEAE"/>
<path d="M50.3918 24.3496L50.3917 24.3488C50.3811 24.0752 50.1509 23.8621 49.8774 23.8727L42.2903 24.1672C42.0169 24.1778 41.8037 24.4081 41.8143 24.6816L41.8144 24.6824C41.825 24.9559 42.0552 25.1691 42.3287 25.1585L49.9158 24.864C50.1892 24.8534 50.4024 24.6231 50.3918 24.3496Z" fill="#AEAEAE"/>
<path d="M13.7706 14.9774L13.7712 14.9768C13.9647 14.783 13.9647 14.4689 13.7712 14.2752L8.40231 8.89995C8.20878 8.70619 7.89501 8.70619 7.70149 8.89995L7.70093 8.9005C7.50741 9.09426 7.50741 9.4084 7.70093 9.60215L13.0698 14.9774C13.2633 15.1711 13.5771 15.1711 13.7706 14.9774Z" fill="#AEAEAE"/>
<path d="M9.32796 24.6777L9.32799 24.6769C9.33858 24.4034 9.12547 24.173 8.85199 24.1624L1.26494 23.868C0.991458 23.8574 0.76117 24.0706 0.750577 24.3441L0.750546 24.3449C0.739953 24.6184 0.953066 24.8487 1.22655 24.8593L8.81359 25.1537C9.08707 25.1643 9.31736 24.9512 9.32796 24.6777Z" fill="#AEAEAE"/>
</svg>
