<svg width="51" height="61" viewBox="0 0 51 61" fill="none" xmlns="http://www.w3.org/2000/svg">
<path d="M32.5266 56.6679L42.3914 47.5669" stroke="#AEAEAE" stroke-width="1.5" stroke-miterlimit="10"/>
<path d="M9.67456 47.4744L19.4875 56.5283" stroke="#AEAEAE" stroke-width="1.5" stroke-miterlimit="10"/>
<path d="M22.9469 24.6704C22.9469 24.6704 21.3967 27.0268 19.8472 33.9026" stroke="#AEAEAE" stroke-width="1.5" stroke-linejoin="round"/>
<path d="M28.9683 24.6704C28.9683 24.6704 30.5178 27.0268 32.068 33.9026" stroke="#AEAEAE" stroke-width="1.5" stroke-linejoin="round"/>
<path d="M42.3914 47.567L37.607 44.6726L37.9816 34.9267C38.0467 33.2368 37.7545 31.5522 37.124 29.9831L30.5632 13.6598C30.36 13.154 29.9663 12.7483 29.4668 12.53C28.9674 12.3117 28.4022 12.2983 27.893 12.4926L27.8467 12.5107C27.3555 12.6967 26.9501 13.0573 26.7078 13.5234C26.4656 13.9895 26.4036 14.5285 26.5336 15.0375C27.3559 18.2814 28.9682 24.6742 28.9682 24.6742C26.7127 22.958 25.5393 24.8517 26.0946 27.0808L27.0833 33.56C27.3883 35.5533 27.409 37.5798 27.1446 39.5789L26.77 42.4136C26.3175 45.8411 27.1962 49.3117 29.225 52.1108L32.5234 56.6664" stroke="#AEAEAE" stroke-width="1.5" stroke-miterlimit="10"/>
<path d="M32.5266 56.6664L32.1944 56.9728C32.0907 57.0683 32.0069 57.1833 31.9478 57.3113C31.8886 57.4392 31.8552 57.5776 31.8495 57.7184C31.8438 57.8593 31.8659 57.9999 31.9146 58.1322C31.9633 58.2645 32.0375 58.3859 32.1331 58.4895L33.2091 59.6511C33.3045 59.7548 33.4195 59.8386 33.5473 59.8978C33.6752 59.9569 33.8135 59.9903 33.9542 59.996C34.095 60.0017 34.2355 59.9796 34.3677 59.9309C34.5 59.8823 34.6213 59.808 34.7248 59.7124L46.0197 49.2918C46.1233 49.1963 46.2071 49.0813 46.2663 48.9533C46.3255 48.8254 46.3589 48.687 46.3646 48.5462C46.3703 48.4053 46.3481 48.2647 46.2995 48.1324C46.2508 48.0001 46.1766 47.8787 46.0809 47.7751L45.0089 46.6126C44.9134 46.509 44.7984 46.4252 44.6705 46.366C44.5426 46.3068 44.4042 46.2734 44.2634 46.2677C44.1225 46.262 43.982 46.2842 43.8497 46.3328C43.7174 46.3815 43.596 46.4558 43.4924 46.5514L42.3929 47.567" stroke="#AEAEAE" stroke-width="1.5" stroke-miterlimit="10"/>
<path d="M9.67456 47.4766L14.3081 44.6749L13.9335 34.9291C13.8684 33.2392 14.1606 31.5546 14.7911 29.9854L21.3503 13.6598C21.5536 13.154 21.9473 12.7483 22.4467 12.53C22.9461 12.3117 23.5113 12.2983 24.0205 12.4926L24.0676 12.5107C24.5592 12.6965 24.965 13.0568 25.2077 13.5229C25.4504 13.989 25.5128 14.5282 25.3831 15.0375C24.5608 18.2814 22.9485 24.6742 22.9485 24.6742C25.1985 22.9541 26.3766 24.8478 25.8198 27.0769L24.8271 33.56C24.5218 35.5533 24.5009 37.5798 24.765 39.5789L25.1404 42.4136C25.5929 45.8411 24.7142 49.3117 22.6854 52.1108L19.4851 56.5305" stroke="#AEAEAE" stroke-width="1.5" stroke-miterlimit="10"/>
<path d="M9.67446 47.4765L8.67393 46.5536C8.57036 46.458 8.44896 46.3837 8.31668 46.335C8.18439 46.2864 8.04382 46.2642 7.90298 46.2699C7.76214 46.2756 7.62381 46.309 7.49588 46.3682C7.36795 46.4274 7.25294 46.5112 7.15742 46.6148L6.08463 47.7773C5.89194 47.9867 5.79017 48.264 5.80166 48.5483C5.81314 48.8327 5.93694 49.1009 6.14589 49.294L17.4447 59.7154C17.5482 59.811 17.6695 59.8852 17.8018 59.9339C17.934 59.9826 18.0745 60.0047 18.2153 59.999C18.356 59.9933 18.4943 59.9599 18.6222 59.9007C18.75 59.8416 18.865 59.7578 18.9604 59.6541L20.0332 58.4917C20.1288 58.3881 20.2031 58.2667 20.2517 58.1344C20.3004 58.0021 20.3225 57.8615 20.3168 57.7206C20.3112 57.5798 20.2778 57.4414 20.2186 57.3135C20.1594 57.1855 20.0756 57.0705 19.972 56.975L19.4882 56.5288" stroke="#AEAEAE" stroke-width="1.5" stroke-miterlimit="10"/>
<path d="M25.9573 0H25.9565C25.6828 0 25.4609 0.221897 25.4609 0.49562V8.08937C25.4609 8.36309 25.6828 8.58499 25.9565 8.58499H25.9573C26.231 8.58499 26.4528 8.36309 26.4528 8.08937V0.49562C26.4528 0.221897 26.231 0 25.9573 0Z" fill="#AEAEAE"/>
<path d="M43.4384 8.1076L43.4378 8.10705C43.2443 7.9135 42.9305 7.9135 42.737 8.10705L37.3681 13.4766C37.1746 13.6702 37.1746 13.984 37.3681 14.1775L37.3686 14.1781C37.5622 14.3717 37.8759 14.3717 38.0695 14.1781L43.4384 8.80852C43.6319 8.61496 43.6319 8.30116 43.4384 8.1076Z" fill="#AEAEAE"/>
<path d="M50.3913 23.541L50.3913 23.5402C50.3807 23.2667 50.1504 23.0535 49.8769 23.0641L42.2898 23.3583C42.0164 23.3689 41.8032 23.5992 41.8138 23.8727L41.8139 23.8735C41.8245 24.147 42.0548 24.3602 42.3283 24.3496L49.9153 24.0554C50.1888 24.0448 50.4019 23.8145 50.3913 23.541Z" fill="#AEAEAE"/>
<path d="M13.7706 14.1777L13.7712 14.1771C13.9647 13.9836 13.9647 13.6698 13.7712 13.4762L8.40229 8.10661C8.20876 7.91306 7.89499 7.91306 7.70147 8.10661L7.70091 8.10717C7.50738 8.30072 7.50738 8.61453 7.70091 8.80808L13.0698 14.1777C13.2633 14.3712 13.5771 14.3712 13.7706 14.1777Z" fill="#AEAEAE"/>
<path d="M9.32794 23.8681L9.32797 23.8673C9.33857 23.5938 9.12547 23.3635 8.85198 23.3529L1.26493 23.0587C0.991449 23.0481 0.761153 23.2612 0.750552 23.5348L0.750521 23.5355C0.73992 23.8091 0.953026 24.0394 1.22651 24.05L8.81356 24.3442C9.08704 24.3548 9.31734 24.1416 9.32794 23.8681Z" fill="#AEAEAE"/>
</svg>
