<svg width="128" height="62" viewBox="0 0 128 62" fill="none" xmlns="http://www.w3.org/2000/svg">
<path d="M104.474 5.10718H23.0647V54.0284H104.474V5.10718Z" stroke="#AEAEAE" stroke-width="1.5" stroke-miterlimit="10"/>
<path d="M108.209 1H19.3293V58.137H34.8902L34.1435 60.9984H93.0217L92.3989 58.137H108.209V1Z" stroke="#AEAEAE" stroke-width="1.5" stroke-miterlimit="10"/>
<path d="M15.4718 22.4109H1.28052V61H15.4718V22.4109Z" stroke="#AEAEAE" stroke-width="1.5" stroke-miterlimit="10"/>
<path d="M8.37622 36.3528C10.5761 36.3528 12.3594 34.5695 12.3594 32.3696C12.3594 30.1698 10.5761 28.3865 8.37622 28.3865C6.17639 28.3865 4.39307 30.1698 4.39307 32.3696C4.39307 34.5695 6.17639 36.3528 8.37622 36.3528Z" stroke="#AEAEAE" stroke-width="1.5" stroke-miterlimit="10"/>
<path d="M8.37622 54.0283C10.5761 54.0283 12.3594 52.245 12.3594 50.0452C12.3594 47.8453 10.5761 46.062 8.37622 46.062C6.17639 46.062 4.39307 47.8453 4.39307 50.0452C4.39307 52.245 6.17639 54.0283 8.37622 54.0283Z" stroke="#AEAEAE" stroke-width="1.5" stroke-miterlimit="10"/>
<path d="M126.508 22.4109H112.316V61H126.508V22.4109Z" stroke="#AEAEAE" stroke-width="1.5" stroke-miterlimit="10"/>
<path d="M119.412 36.3528C121.612 36.3528 123.395 34.5695 123.395 32.3696C123.395 30.1698 121.612 28.3865 119.412 28.3865C117.212 28.3865 115.429 30.1698 115.429 32.3696C115.429 34.5695 117.212 36.3528 119.412 36.3528Z" stroke="#AEAEAE" stroke-width="1.5" stroke-miterlimit="10"/>
<path d="M119.412 54.0283C121.612 54.0283 123.395 52.245 123.395 50.0452C123.395 47.8453 121.612 46.062 119.412 46.062C117.212 46.062 115.429 47.8453 115.429 50.0452C115.429 52.245 117.212 54.0283 119.412 54.0283Z" stroke="#AEAEAE" stroke-width="1.5" stroke-miterlimit="10"/>
<path d="M63.7687 59.3811C64.8339 59.3811 65.6975 58.5175 65.6975 57.4523C65.6975 56.387 64.8339 55.5234 63.7687 55.5234C62.7034 55.5234 61.8398 56.387 61.8398 57.4523C61.8398 58.5175 62.7034 59.3811 63.7687 59.3811Z" stroke="#AEAEAE" stroke-width="1.5" stroke-miterlimit="10"/>
<path d="M27.1719 14.6925L35.1398 9.96265" stroke="#AEAEAE" stroke-width="1.5" stroke-miterlimit="10"/>
<path d="M25.6497 19.0459L40.9499 9.96265" stroke="#AEAEAE" stroke-width="1.5" stroke-miterlimit="10"/>
</svg>
