<svg width="51" height="62" viewBox="0 0 51 62" fill="none" xmlns="http://www.w3.org/2000/svg">
<path d="M45.3105 31.8053C44.3523 31.0901 43.304 30.698 42.2012 30.698C41.0659 30.698 39.9843 31.1196 39.0049 31.875" stroke="#AEAEAE" stroke-width="1.5" stroke-miterlimit="10"/>
<path d="M39.005 31.875C37.9325 32.7023 36.9826 33.9337 36.2151 35.4596" stroke="#AEAEAE" stroke-width="1.5" stroke-miterlimit="10"/>
<path d="M45.3105 31.8054C48.192 33.955 50.2144 39.0012 50.2144 44.8844C50.2144 52.7197 46.6267 59.0716 42.2012 59.0716C38.8641 59.0716 36.0038 55.4574 34.7988 50.3204" stroke="#AEAEAE" stroke-width="1.5" stroke-miterlimit="10"/>
<path d="M45.3105 31.8054V29.1222C45.3105 28.7657 45.2403 28.4126 45.1039 28.0832C44.9674 27.7538 44.7674 27.4545 44.5153 27.2024C44.2632 26.9503 43.9639 26.7503 43.6345 26.6139C43.3051 26.4775 42.9521 26.4072 42.5956 26.4072H41.7198C41.3633 26.4072 41.0103 26.4775 40.6809 26.6139C40.3515 26.7503 40.0522 26.9503 39.8001 27.2024C39.548 27.4545 39.348 27.7538 39.2115 28.0832C39.0751 28.4126 39.0049 28.7657 39.0049 29.1222V31.8757" stroke="#AEAEAE" stroke-width="1.5" stroke-miterlimit="10"/>
<path d="M34.7996 50.3202L36.2157 35.4595" stroke="#AEAEAE" stroke-width="1.5" stroke-miterlimit="10"/>
<path d="M34.7988 50.3204L33.3978 59.1253C33.276 60.1849 32.202 61.0001 30.9183 61.0001H7.42901C6.16122 61.0001 5.09628 60.2084 4.95398 59.1616L1 30.0615" stroke="#AEAEAE" stroke-width="1.5" stroke-miterlimit="10"/>
<path d="M36.7297 30.0615L36.2158 35.4596" stroke="#AEAEAE" stroke-width="1.5" stroke-miterlimit="10"/>
<path d="M26.2209 17.6257H31.607L36.7296 30.0614" stroke="#AEAEAE" stroke-width="1.5" stroke-miterlimit="10"/>
<path d="M11.5094 17.6257H6.51769L1.00073 30.0614" stroke="#AEAEAE" stroke-width="1.5" stroke-miterlimit="10"/>
<path d="M11.5085 17.6257V12.8656C11.5093 12.4795 11.6633 12.1095 11.9366 11.8368C12.2099 11.5641 12.5802 11.4109 12.9663 11.4109H13.26" stroke="#AEAEAE" stroke-width="1.5" stroke-miterlimit="10"/>
<path d="M26.2209 17.6257V12.8656C26.2203 12.4795 26.0664 12.1093 25.7931 11.8366C25.5198 11.5638 25.1493 11.4107 24.7632 11.4109H24.4695" stroke="#AEAEAE" stroke-width="1.5" stroke-miterlimit="10"/>
<path d="M26.2209 17.6257H11.5093" stroke="#AEAEAE" stroke-width="1.5" stroke-miterlimit="10"/>
<path d="M24.4695 11.411V4.94717C24.4695 3.90032 24.0537 2.89634 23.3134 2.1561C22.5732 1.41586 21.5692 1 20.5224 1H17.2072C16.1603 1 15.1563 1.41586 14.4161 2.1561C13.6759 2.89634 13.26 3.90032 13.26 4.94717V11.411" stroke="#AEAEAE" stroke-width="1.5" stroke-miterlimit="10"/>
<path d="M24.4695 11.408H13.2607" stroke="#AEAEAE" stroke-width="1.5" stroke-miterlimit="10"/>
<path d="M31.1727 57.847H7.09L4.46436 33.6772L6.63511 34.3637C7.55912 34.6554 8.5514 34.6496 9.47193 34.3471L10.3045 34.0731C11.0861 33.8154 11.9298 33.8154 12.7114 34.0731L14.0291 34.5083C14.7569 34.7489 15.5392 34.771 16.2794 34.5719L18.3411 34.0171C19.1634 33.7958 20.0358 33.8539 20.8215 34.1821L22.2595 34.7823C22.7683 34.9955 23.3163 35.099 23.8677 35.0859C24.4191 35.0729 24.9616 34.9436 25.4597 34.7066L26.1651 34.3706C26.6258 34.1513 27.1255 34.0258 27.6351 34.0015C28.1448 33.9772 28.6541 34.0546 29.1336 34.229C29.7387 34.4494 30.3886 34.5174 31.0262 34.4271C31.6638 34.3369 32.2693 34.091 32.7894 33.7113L32.8355 33.678L31.1727 57.847Z" stroke="#AEAEAE" stroke-width="1.5" stroke-miterlimit="10"/>
<path d="M42.5954 26.4063V19.228C42.5954 19.228 44.2606 5.97339 29.3416 5.97339H24.4695" stroke="#AEAEAE" stroke-width="1.5" stroke-miterlimit="10"/>
<path d="M15.2673 6.20349C15.7334 6.20349 16.1112 5.82564 16.1112 5.35955C16.1112 4.89347 15.7334 4.51562 15.2673 4.51562C14.8012 4.51562 14.4233 4.89347 14.4233 5.35955C14.4233 5.82564 14.8012 6.20349 15.2673 6.20349Z" stroke="#AEAEAE" stroke-width="1.5" stroke-miterlimit="10"/>
<path d="M11.5094 8.26831L6.25513 10.6321" stroke="#AEAEAE" stroke-width="1.5" stroke-miterlimit="10"/>
<path d="M11.2938 5.97339H5.16602" stroke="#AEAEAE" stroke-width="1.5" stroke-miterlimit="10"/>
<path d="M11.2937 3.79224L6.25513 1.64722" stroke="#AEAEAE" stroke-width="1.5" stroke-miterlimit="10"/>
<path d="M45.3105 35.4595C45.3105 35.4595 50.141 39.6405 47.5812 50.3202" stroke="#AEAEAE" stroke-width="1.5" stroke-miterlimit="10"/>
</svg>
