<svg width="55" height="62" viewBox="0 0 55 62" fill="none" xmlns="http://www.w3.org/2000/svg">
<path d="M30.8557 19.6475H26.1372C24.75 19.6475 23.6255 20.772 23.6255 22.1592C23.6255 23.5463 24.75 24.6709 26.1372 24.6709H30.8557C32.2429 24.6709 33.3674 23.5463 33.3674 22.1592C33.3674 20.772 32.2429 19.6475 30.8557 19.6475Z" stroke="#AEAEAE" stroke-width="1.5" stroke-miterlimit="10"/>
<path d="M28.6306 24.6709V27.086C28.6306 27.7389 28.3713 28.3651 27.9096 28.8268C27.4479 29.2885 26.8217 29.5479 26.1688 29.5479C25.228 29.5479 24.3257 29.1742 23.6605 28.5089C22.9953 27.8437 22.6216 26.9415 22.6216 26.0007V25.7675" stroke="#AEAEAE" stroke-width="1.5" stroke-miterlimit="10"/>
<path d="M28.6306 24.6709V27.086C28.6305 27.4093 28.6941 27.7294 28.8177 28.0281C28.9414 28.3267 29.1227 28.5981 29.3512 28.8268C29.5797 29.0554 29.8511 29.2367 30.1497 29.3605C30.4484 29.4842 30.7685 29.5479 31.0917 29.5479V29.5479C32.0325 29.5479 32.9348 29.1742 33.6 28.5089C34.2652 27.8437 34.6389 26.9415 34.6389 26.0007V25.7675" stroke="#AEAEAE" stroke-width="1.5" stroke-miterlimit="10"/>
<path d="M35.6119 18.3004C36.1475 18.3004 36.5817 17.2911 36.5817 16.0461C36.5817 14.8011 36.1475 13.7917 35.6119 13.7917C35.0763 13.7917 34.6421 14.8011 34.6421 16.0461C34.6421 17.2911 35.0763 18.3004 35.6119 18.3004Z" stroke="#AEAEAE" stroke-width="1.5" stroke-miterlimit="10"/>
<path d="M21.5438 18.3004C22.0794 18.3004 22.5136 17.2911 22.5136 16.0461C22.5136 14.8011 22.0794 13.7917 21.5438 13.7917C21.0082 13.7917 20.574 14.8011 20.574 16.0461C20.574 17.2911 21.0082 18.3004 21.5438 18.3004Z" stroke="#AEAEAE" stroke-width="1.5" stroke-miterlimit="10"/>
<path d="M39.2223 31.9751C38.3783 32.4914 37.4951 32.9409 36.5808 33.3192" stroke="#AEAEAE" stroke-width="1.5" stroke-miterlimit="10"/>
<path d="M19.4494 32.7562C18.9649 32.5132 18.4932 32.2536 18.0388 31.9751" stroke="#AEAEAE" stroke-width="1.5" stroke-miterlimit="10"/>
<path d="M34.863 33.9405C35.4502 33.7571 36.0245 33.551 36.5808 33.3193" stroke="#AEAEAE" stroke-width="1.5" stroke-miterlimit="10"/>
<path d="M21.223 33.5289C20.6147 33.2965 20.02 33.0421 19.4495 32.7561" stroke="#AEAEAE" stroke-width="1.5" stroke-miterlimit="10"/>
<path d="M34.8631 33.9404C30.3973 35.3244 25.5975 35.1797 21.2231 33.5291" stroke="#AEAEAE" stroke-width="1.5" stroke-miterlimit="10"/>
<path d="M36.9514 6.13208C37.5712 6.40454 38.1758 6.71014 38.7627 7.04755" stroke="#AEAEAE" stroke-width="1.5" stroke-miterlimit="10"/>
<path d="M41.5794 9.04987C40.7072 8.2922 39.7631 7.62159 38.7605 7.04761" stroke="#AEAEAE" stroke-width="1.5" stroke-miterlimit="10"/>
<path d="M18.1287 7.26792C18.7819 6.87039 19.4589 6.51324 20.1558 6.19849" stroke="#AEAEAE" stroke-width="1.5" stroke-miterlimit="10"/>
<path d="M15.5454 9.17046C16.347 8.45911 17.2117 7.82226 18.1288 7.26782" stroke="#AEAEAE" stroke-width="1.5" stroke-miterlimit="10"/>
<path d="M45.3053 13.8407C44.7789 12.7747 44.1251 11.7764 43.3582 10.8679" stroke="#AEAEAE" stroke-width="1.5" stroke-miterlimit="10"/>
<path d="M41.5793 9.0498C42.2191 9.60821 42.8139 10.2161 43.3582 10.8679" stroke="#AEAEAE" stroke-width="1.5" stroke-miterlimit="10"/>
<path d="M45.3053 13.8408C46.1965 15.647 46.6613 17.6336 46.6638 19.6476C46.6638 23.4272 45.0314 26.8831 42.3333 29.545" stroke="#AEAEAE" stroke-width="1.5" stroke-miterlimit="10"/>
<path d="M11.9076 13.9419C11.0474 15.7211 10.5995 17.6713 10.5974 19.6476C10.5974 23.2536 12.0872 26.5623 14.5672 29.1706" stroke="#AEAEAE" stroke-width="1.5" stroke-miterlimit="10"/>
<path d="M15.5455 9.17065C14.8907 9.75487 14.2849 10.3917 13.7341 11.0748" stroke="#AEAEAE" stroke-width="1.5" stroke-miterlimit="10"/>
<path d="M13.7326 11.0747C13.015 11.9566 12.4026 12.919 11.9077 13.9426" stroke="#AEAEAE" stroke-width="1.5" stroke-miterlimit="10"/>
<path d="M21.7839 5.55776C26.1127 4.06834 30.8089 4.03019 35.1613 5.44908" stroke="#AEAEAE" stroke-width="1.5" stroke-miterlimit="10"/>
<path d="M20.156 6.19862C20.6843 5.96164 21.2285 5.75107 21.7839 5.55786" stroke="#AEAEAE" stroke-width="1.5" stroke-miterlimit="10"/>
<path d="M36.9513 6.13213C36.3732 5.87779 35.7747 5.65137 35.1611 5.45288" stroke="#AEAEAE" stroke-width="1.5" stroke-miterlimit="10"/>
<path d="M14.5671 29.1707C15.5977 30.2522 16.7648 31.195 18.0388 31.9752" stroke="#AEAEAE" stroke-width="1.5" stroke-miterlimit="10"/>
<path d="M42.3334 29.5449C41.3919 30.4703 40.3482 31.2856 39.2224 31.9751" stroke="#AEAEAE" stroke-width="1.5" stroke-miterlimit="10"/>
<path d="M10.4253 44.0408C10.7604 39.0649 13.6872 34.7034 18.0389 31.9751" stroke="#AEAEAE" stroke-width="1.5" stroke-miterlimit="10"/>
<path d="M39.2224 31.9751C43.0337 34.3645 45.75 38.0076 46.5915 42.2189" stroke="#AEAEAE" stroke-width="1.5" stroke-miterlimit="10"/>
<path d="M39.811 57.6355C36.7219 59.7419 32.8442 61 28.6291 61C24.8698 61 21.3777 60.0015 18.4751 58.2921" stroke="#AEAEAE" stroke-width="1.5" stroke-miterlimit="10"/>
<path d="M46.5914 42.2189C44.7046 41.8325 42.7778 42.3509 41.1741 43.5208" stroke="#AEAEAE" stroke-width="1.5" stroke-miterlimit="10"/>
<path d="M41.174 43.5208C39.5333 44.7177 38.2261 46.5962 37.6344 48.8875C36.7537 52.2996 37.7023 55.68 39.8125 57.6355" stroke="#AEAEAE" stroke-width="1.5" stroke-miterlimit="10"/>
<path d="M46.5913 42.2188C46.6947 42.2399 46.7989 42.2625 46.9023 42.2889C49.854 43.0512 51.8306 45.8489 52.1098 49.1742" stroke="#AEAEAE" stroke-width="1.5" stroke-miterlimit="10"/>
<path d="M52.1128 49.1743C52.2055 50.3078 52.1065 51.4488 51.82 52.5494C50.6177 57.2045 46.469 60.1592 42.5521 59.1479C41.5278 58.8815 40.5866 58.3625 39.8147 57.6385" stroke="#AEAEAE" stroke-width="1.5" stroke-miterlimit="10"/>
<path d="M5.01855 49.7284C5.48346 47.3231 6.91591 45.3065 9.09403 44.4167C9.52172 44.2421 9.96747 44.1155 10.4231 44.0393" stroke="#AEAEAE" stroke-width="1.5" stroke-miterlimit="10"/>
<path d="M5.01864 49.7283C4.6843 51.4566 4.84656 53.3841 5.60732 55.2453C7.42543 59.6981 11.9349 62.0641 15.6798 60.5343C16.8053 60.0684 17.7742 59.2904 18.4722 58.292" stroke="#AEAEAE" stroke-width="1.5" stroke-miterlimit="10"/>
<path d="M14.0857 44.4725C12.9008 44.0031 11.6457 43.8363 10.4253 44.0408" stroke="#AEAEAE" stroke-width="1.5" stroke-miterlimit="10"/>
<path d="M14.0857 44.4724C16.2268 45.3215 18.134 47.1728 19.1695 49.7056C20.4291 52.7894 20.0638 56.0626 18.4766 58.292" stroke="#AEAEAE" stroke-width="1.5" stroke-miterlimit="10"/>
<path d="M14.5672 29.1707C12.1695 29.9329 3.14082 33.3571 1.79667 42.0627C1.07063 46.7624 2.47591 49.0559 5.02082 49.7284" stroke="#AEAEAE" stroke-width="1.5" stroke-miterlimit="10"/>
<path d="M42.3333 29.5449C45.6389 30.7925 52.845 34.3593 54.0314 42.0627C54.6216 45.8838 53.805 48.1125 52.1076 49.1744" stroke="#AEAEAE" stroke-width="1.5" stroke-miterlimit="10"/>
<path d="M21.223 33.5291C19.9913 35.4158 19.2517 37.8309 19.2517 40.4634C19.2517 46.4936 23.1302 51.3826 27.9151 51.3826C32.7 51.3826 36.5793 46.4966 36.5793 40.4634C36.5793 38.0181 35.9408 35.76 34.863 33.9404" stroke="#AEAEAE" stroke-width="1.5" stroke-miterlimit="10"/>
<path d="M11.9077 13.9419C9.0141 12.9947 6.94995 10.554 6.94995 7.68453C6.94995 3.99245 10.3598 1 14.5673 1C17.9258 1 20.7711 2.90943 21.7839 5.55774" stroke="#AEAEAE" stroke-width="1.5" stroke-miterlimit="10"/>
<path d="M45.3055 13.8408C48.036 12.8249 49.9507 10.4513 49.9507 7.68453C49.9507 3.99245 46.5409 1 42.3334 1C39.0209 1 36.2104 2.85811 35.1636 5.45283" stroke="#AEAEAE" stroke-width="1.5" stroke-miterlimit="10"/>
<path d="M13.7324 11.0747C12.0592 10.1743 11.3068 8.29582 12.0547 6.84374C12.8094 5.37129 14.8222 4.89582 16.543 5.78186C17.2019 6.11641 17.7517 6.63191 18.1279 7.26789" stroke="#AEAEAE" stroke-width="1.5" stroke-miterlimit="10"/>
<path d="M38.7605 7.04752C39.1302 6.51209 39.6275 6.07713 40.2073 5.78186C41.928 4.89582 43.9371 5.37129 44.6948 6.84374C45.3899 8.19242 44.7892 9.90865 43.3597 10.8679" stroke="#AEAEAE" stroke-width="1.5" stroke-miterlimit="10"/>
</svg>
