<svg width="55" height="62" viewBox="0 0 55 62" fill="none" xmlns="http://www.w3.org/2000/svg">
<path d="M30.8557 19.665H26.1372C24.75 19.665 23.6255 20.7908 23.6255 22.1794C23.6255 23.5681 24.75 24.6938 26.1372 24.6938H30.8557C32.2428 24.6938 33.3674 23.5681 33.3674 22.1794C33.3674 20.7908 32.2428 19.665 30.8557 19.665Z" stroke="#AEAEAE" stroke-width="1.5" stroke-miterlimit="10"/>
<path d="M28.6306 24.6943V27.1118C28.6306 27.7654 28.3713 28.3922 27.9096 28.8544C27.4479 29.3165 26.8217 29.5762 26.1688 29.5762C25.228 29.5762 24.3258 29.2021 23.6605 28.5362C22.9953 27.8703 22.6216 26.9672 22.6216 26.0255V25.792" stroke="#AEAEAE" stroke-width="1.5" stroke-miterlimit="10"/>
<path d="M28.6309 24.6943V27.1118C28.6308 27.4354 28.6943 27.7559 28.818 28.0548C28.9416 28.3538 29.1229 28.6255 29.3514 28.8543C29.58 29.0832 29.8513 29.2647 30.15 29.3886C30.4486 29.5124 30.7687 29.5762 31.092 29.5762V29.5762C32.0328 29.5762 32.935 29.2021 33.6002 28.5362C34.2655 27.8703 34.6392 26.9672 34.6392 26.0255V25.792" stroke="#AEAEAE" stroke-width="1.5" stroke-miterlimit="10"/>
<path d="M35.6119 18.3164C36.1475 18.3164 36.5817 17.3062 36.5817 16.0601C36.5817 14.8139 36.1475 13.8037 35.6119 13.8037C35.0763 13.8037 34.6421 14.8139 34.6421 16.0601C34.6421 17.3062 35.0763 18.3164 35.6119 18.3164Z" stroke="#AEAEAE" stroke-width="1.5" stroke-miterlimit="10"/>
<path d="M21.544 18.3164C22.0797 18.3164 22.5139 17.3062 22.5139 16.0601C22.5139 14.8139 22.0797 13.8037 21.544 13.8037C21.0084 13.8037 20.5742 14.8139 20.5742 16.0601C20.5742 17.3062 21.0084 18.3164 21.544 18.3164Z" stroke="#AEAEAE" stroke-width="1.5" stroke-miterlimit="10"/>
<path d="M39.2226 32.0059C38.3785 32.5222 37.4953 32.9716 36.5811 33.35" stroke="#AEAEAE" stroke-width="1.5" stroke-miterlimit="10"/>
<path d="M19.4496 32.787C18.9651 32.544 18.4934 32.2844 18.0391 32.0059" stroke="#AEAEAE" stroke-width="1.5" stroke-miterlimit="10"/>
<path d="M34.8633 33.9727C35.4505 33.7893 36.0248 33.5833 36.581 33.3516" stroke="#AEAEAE" stroke-width="1.5" stroke-miterlimit="10"/>
<path d="M21.2233 33.5599C20.615 33.3275 20.0203 33.0731 19.4497 32.7871" stroke="#AEAEAE" stroke-width="1.5" stroke-miterlimit="10"/>
<path d="M34.8631 33.9728C30.3973 35.3569 25.5975 35.2122 21.2231 33.5615" stroke="#AEAEAE" stroke-width="1.5" stroke-miterlimit="10"/>
<path d="M36.9512 6.13672C37.5709 6.40917 38.1756 6.71477 38.7625 7.05219" stroke="#AEAEAE" stroke-width="1.5" stroke-miterlimit="10"/>
<path d="M41.5791 9.055C40.707 8.29733 39.7629 7.62672 38.7603 7.05273" stroke="#AEAEAE" stroke-width="1.5" stroke-miterlimit="10"/>
<path d="M18.1289 7.27256C18.7822 6.87503 19.4592 6.51788 20.1561 6.20312" stroke="#AEAEAE" stroke-width="1.5" stroke-miterlimit="10"/>
<path d="M15.5454 9.17608C16.347 8.46472 17.2117 7.82788 18.1288 7.27344" stroke="#AEAEAE" stroke-width="1.5" stroke-miterlimit="10"/>
<path d="M45.3056 13.8508C44.7792 12.7844 44.1253 11.7858 43.3584 10.877" stroke="#AEAEAE" stroke-width="1.5" stroke-miterlimit="10"/>
<path d="M41.5791 9.05664C42.2189 9.61505 42.8137 10.223 43.358 10.8748" stroke="#AEAEAE" stroke-width="1.5" stroke-miterlimit="10"/>
<path d="M45.3056 13.8525C46.1968 15.6605 46.6615 17.6492 46.6641 19.6653C46.6641 23.4488 45.0316 26.9081 42.3335 29.5728" stroke="#AEAEAE" stroke-width="1.5" stroke-miterlimit="10"/>
<path d="M11.9078 13.9541C11.0476 15.7351 10.5998 17.6875 10.5977 19.6657C10.5977 23.2756 12.0875 26.5877 14.5675 29.1987" stroke="#AEAEAE" stroke-width="1.5" stroke-miterlimit="10"/>
<path d="M15.5452 9.17773C14.8905 9.76195 14.2847 10.3988 13.7339 11.0819" stroke="#AEAEAE" stroke-width="1.5" stroke-miterlimit="10"/>
<path d="M13.7326 11.084C13.015 11.9659 12.4026 12.9283 11.9077 13.9519" stroke="#AEAEAE" stroke-width="1.5" stroke-miterlimit="10"/>
<path d="M21.7837 5.55971C26.1124 4.07029 30.8087 4.03214 35.1611 5.45104" stroke="#AEAEAE" stroke-width="1.5" stroke-miterlimit="10"/>
<path d="M20.1558 6.20228C20.6841 5.9653 21.2282 5.75473 21.7837 5.56152" stroke="#AEAEAE" stroke-width="1.5" stroke-miterlimit="10"/>
<path d="M36.9513 6.1353C36.3732 5.88096 35.7747 5.65455 35.1611 5.45605" stroke="#AEAEAE" stroke-width="1.5" stroke-miterlimit="10"/>
<path d="M14.5674 29.1982C15.598 30.2798 16.765 31.2226 18.0391 32.0028" stroke="#AEAEAE" stroke-width="1.5" stroke-miterlimit="10"/>
<path d="M42.3331 29.5732C41.3916 30.4987 40.348 31.314 39.2222 32.0034" stroke="#AEAEAE" stroke-width="1.5" stroke-miterlimit="10"/>
<path d="M10.4253 44.0837C10.7604 39.1029 13.6872 34.7369 18.0389 32.0059" stroke="#AEAEAE" stroke-width="1.5" stroke-miterlimit="10"/>
<path d="M39.2222 32.0059C43.0335 34.3977 45.7497 38.0444 46.5912 42.26" stroke="#AEAEAE" stroke-width="1.5" stroke-miterlimit="10"/>
<path d="M39.8109 57.6924C36.7219 59.7995 32.8442 61.0581 28.6291 61.0581C24.8698 61.0581 21.3777 60.0593 18.4751 58.3492" stroke="#AEAEAE" stroke-width="1.5" stroke-miterlimit="10"/>
<path d="M46.5912 42.2601C44.7044 41.8737 42.7776 42.3922 41.1738 43.562" stroke="#AEAEAE" stroke-width="1.5" stroke-miterlimit="10"/>
<path d="M41.1743 43.5625C39.5335 44.7607 38.2263 46.6412 37.6346 48.9349C36.7539 52.3505 37.7026 55.7344 39.8128 57.6919" stroke="#AEAEAE" stroke-width="1.5" stroke-miterlimit="10"/>
<path d="M46.5913 42.2598C46.6947 42.2809 46.7989 42.3036 46.9023 42.33C49.854 43.0931 51.8306 45.8937 52.1098 49.2224" stroke="#AEAEAE" stroke-width="1.5" stroke-miterlimit="10"/>
<path d="M52.1131 49.2227C52.2058 50.3573 52.1068 51.4995 51.8202 52.6013C50.618 57.2613 46.4693 60.2191 42.5523 59.2067C41.528 58.94 40.5869 58.4205 39.8149 57.6957" stroke="#AEAEAE" stroke-width="1.5" stroke-miterlimit="10"/>
<path d="M5.01855 49.7769C5.48346 47.3691 6.91591 45.3505 9.09401 44.4598C9.52171 44.285 9.96745 44.1583 10.4231 44.082" stroke="#AEAEAE" stroke-width="1.5" stroke-miterlimit="10"/>
<path d="M5.01864 49.7773C4.6843 51.5074 4.84656 53.4369 5.60732 55.2999C7.42543 59.7572 11.9349 62.1257 15.6798 60.5943C16.8053 60.1279 17.7742 59.3492 18.4722 58.3498" stroke="#AEAEAE" stroke-width="1.5" stroke-miterlimit="10"/>
<path d="M14.0857 44.5157C12.9008 44.0463 11.6457 43.8795 10.4253 44.084" stroke="#AEAEAE" stroke-width="1.5" stroke-miterlimit="10"/>
<path d="M14.0859 44.5156C16.2271 45.3655 18.1342 47.2187 19.1697 49.7541C20.4293 52.841 20.0641 56.1174 18.4769 58.3491" stroke="#AEAEAE" stroke-width="1.5" stroke-miterlimit="10"/>
<path d="M14.5672 29.1982C12.1695 29.9613 3.14082 33.389 1.79667 42.1036C1.07063 46.808 2.47591 49.104 5.02082 49.7771" stroke="#AEAEAE" stroke-width="1.5" stroke-miterlimit="10"/>
<path d="M42.3335 29.5732C45.6392 30.8221 52.8452 34.3925 54.0316 42.1039C54.6218 45.9289 53.8052 48.1599 52.1078 49.2229" stroke="#AEAEAE" stroke-width="1.5" stroke-miterlimit="10"/>
<path d="M21.2233 33.5615C19.9916 35.4503 19.252 37.8679 19.252 40.503C19.252 46.5395 23.1304 51.4336 27.9153 51.4336C32.7003 51.4336 36.5795 46.5425 36.5795 40.503C36.5795 38.0552 35.941 35.7948 34.8633 33.9733" stroke="#AEAEAE" stroke-width="1.5" stroke-miterlimit="10"/>
<path d="M11.9074 13.9539C9.01386 13.0057 6.94971 10.5623 6.94971 7.68977C6.94971 3.99372 10.3595 0.998047 14.5671 0.998047C17.9255 0.998047 20.7708 2.90954 21.7837 5.56069" stroke="#AEAEAE" stroke-width="1.5" stroke-miterlimit="10"/>
<path d="M45.3055 13.8528C48.036 12.8358 49.9507 10.4597 49.9507 7.68985C49.9507 3.99376 46.5409 0.998047 42.3334 0.998047C39.0209 0.998047 36.2104 2.85818 35.1636 5.45573" stroke="#AEAEAE" stroke-width="1.5" stroke-miterlimit="10"/>
<path d="M13.7327 11.0835C12.0595 10.1822 11.307 8.30178 12.0549 6.84822C12.8097 5.37426 14.8225 4.8983 16.5433 5.78524C17.2021 6.12014 17.7519 6.63617 18.1282 7.2728" stroke="#AEAEAE" stroke-width="1.5" stroke-miterlimit="10"/>
<path d="M38.7603 7.05227C39.13 6.51627 39.6272 6.08084 40.207 5.78526C41.9278 4.89828 43.9369 5.37426 44.6946 6.84828C45.3897 8.19839 44.7889 9.91644 43.3595 10.8767" stroke="#AEAEAE" stroke-width="1.5" stroke-miterlimit="10"/>
</svg>
