<svg width="51" height="62" viewBox="0 0 51 62" fill="none" xmlns="http://www.w3.org/2000/svg">
<path d="M29.6273 12.1658H28.8462" stroke="#AEAEAE" stroke-width="1.5" stroke-miterlimit="10"/>
<path d="M21.2671 12.1658H22.2253" stroke="#AEAEAE" stroke-width="1.5" stroke-miterlimit="10"/>
<path d="M16.6678 12.1658H15.7431L8.52436 17.1044L1.12329 31.3317L9.63376 36.4362L9.8184 60.4567C9.81921 60.601 9.87728 60.7392 9.97994 60.841C10.0826 60.9427 10.2215 60.9999 10.3663 60.9999H40.428C40.5728 60.9999 40.7118 60.9428 40.8146 60.841C40.9173 60.7392 40.9756 60.6011 40.9766 60.4567L41.1574 36.4362L49.6679 31.3317L42.2661 17.1044L35.0474 12.1658H34.5709" stroke="#AEAEAE" stroke-width="1.5" stroke-miterlimit="10"/>
<path d="M25.4198 19.322L22.9419 20.7576" stroke="#AEAEAE" stroke-width="1.5" stroke-miterlimit="10"/>
<path d="M16.6678 12.166L16.4528 11.2486C16.4223 11.1185 16.4273 10.9826 16.4674 10.8551C16.5075 10.7275 16.5812 10.6131 16.6808 10.5236L19.066 8.37134" stroke="#AEAEAE" stroke-width="1.5" stroke-miterlimit="10"/>
<path d="M24.897 18.4203L21.2671 12.1658" stroke="#AEAEAE" stroke-width="1.5" stroke-miterlimit="10"/>
<path d="M21.2672 12.166L19.0659 8.37134" stroke="#AEAEAE" stroke-width="1.5" stroke-miterlimit="10"/>
<path d="M16.6677 12.1658L19.0111 22.1483C19.0323 22.2388 19.0744 22.323 19.1341 22.3942C19.1939 22.4655 19.2695 22.5218 19.355 22.5586C19.4405 22.5955 19.5334 22.6118 19.6264 22.6063C19.7194 22.6009 19.8098 22.5737 19.8903 22.5271L22.9419 20.7597" stroke="#AEAEAE" stroke-width="1.5" stroke-miterlimit="10"/>
<path d="M24.897 18.4204L25.4198 19.3219" stroke="#AEAEAE" stroke-width="1.5" stroke-miterlimit="10"/>
<path d="M27.4646 31.9479H24.3849C24.002 31.9479 23.6348 31.7962 23.364 31.5263C23.0933 31.2564 22.9412 30.8902 22.9412 30.5085V20.76" stroke="#AEAEAE" stroke-width="1.5" stroke-miterlimit="10"/>
<path d="M25.4199 19.3219L25.9503 18.4204" stroke="#AEAEAE" stroke-width="1.5" stroke-miterlimit="10"/>
<path d="M25.4199 19.322L27.4655 20.5955" stroke="#AEAEAE" stroke-width="1.5" stroke-miterlimit="10"/>
<path d="M29.6272 12.1659L29.8407 11.803" stroke="#AEAEAE" stroke-width="1.5" stroke-miterlimit="10"/>
<path d="M25.9502 18.4203L29.6272 12.1658" stroke="#AEAEAE" stroke-width="1.5" stroke-miterlimit="10"/>
<path d="M34.5709 12.166L34.6955 11.7668C34.7362 11.6366 34.7404 11.4977 34.7078 11.3653C34.6751 11.2328 34.6067 11.1118 34.5101 11.0153L31.8582 8.37134" stroke="#AEAEAE" stroke-width="1.5" stroke-miterlimit="10"/>
<path d="M34.5708 12.1658L31.4417 22.1946C31.4145 22.2812 31.3678 22.3605 31.3051 22.4264C31.2424 22.4922 31.1654 22.5429 31.08 22.5745C30.9946 22.6061 30.9031 22.6178 30.8125 22.6086C30.7219 22.5995 30.6346 22.5698 30.5572 22.5218L27.4646 20.5961" stroke="#AEAEAE" stroke-width="1.5" stroke-miterlimit="10"/>
<path d="M31.859 8.37134L29.8408 11.8032" stroke="#AEAEAE" stroke-width="1.5" stroke-miterlimit="10"/>
<path d="M31.8582 8.37134C25.6555 13.7395 19.0652 8.37134 19.0652 8.37134" stroke="#AEAEAE" stroke-width="1.5" stroke-miterlimit="10"/>
<path d="M22.2246 12.1658C24.3777 12.8543 26.6929 12.8543 28.8461 12.1658" stroke="#AEAEAE" stroke-width="1.5" stroke-miterlimit="10"/>
<path d="M22.2246 12.1658C21.7906 12.032 21.3696 11.8591 20.967 11.6492" stroke="#AEAEAE" stroke-width="1.5" stroke-miterlimit="10"/>
<path d="M28.8462 12.1658C29.1722 12.0636 29.5035 11.9439 29.8409 11.8037" stroke="#AEAEAE" stroke-width="1.5" stroke-miterlimit="10"/>
<path d="M25.4625 26.7084C25.9384 26.7084 26.3242 26.3238 26.3242 25.8493C26.3242 25.3749 25.9384 24.9902 25.4625 24.9902C24.9866 24.9902 24.6008 25.3749 24.6008 25.8493C24.6008 26.3238 24.9866 26.7084 25.4625 26.7084Z" stroke="#AEAEAE" stroke-width="1.5" stroke-miterlimit="10"/>
<path d="M25.4625 30.1054C25.9384 30.1054 26.3242 29.7208 26.3242 29.2463C26.3242 28.7718 25.9384 28.3872 25.4625 28.3872C24.9866 28.3872 24.6008 28.7718 24.6008 29.2463C24.6008 29.7208 24.9866 30.1054 25.4625 30.1054Z" stroke="#AEAEAE" stroke-width="1.5" stroke-miterlimit="10"/>
<path d="M9.63745 36.4356V27.3098" stroke="#AEAEAE" stroke-width="1.5" stroke-miterlimit="10"/>
<path d="M41.1431 36.4356V27.3098" stroke="#AEAEAE" stroke-width="1.5" stroke-miterlimit="10"/>
<path d="M2.21069 29.2461L9.6376 33.5582" stroke="#AEAEAE" stroke-width="1.5" stroke-miterlimit="10"/>
<path d="M41.1431 33.7514L48.5814 29.2461" stroke="#AEAEAE" stroke-width="1.5" stroke-miterlimit="10"/>
<path d="M9.63745 25.8493V24.991" stroke="#AEAEAE" stroke-width="1.5" stroke-miterlimit="10"/>
<path d="M22.4951 14.2872C22.4951 14.2872 25.2435 13.1175 28.3772 14.2872" stroke="#AEAEAE" stroke-width="1.5" stroke-miterlimit="10"/>
<path d="M25.5347 13.7673L25.4587 8.3711C25.4587 8.3711 28.8462 8.41428 28.8432 5.6658C28.8401 2.91731 28.6403 1.11353 25.6821 1.11353C22.724 1.11353 22.1503 3.17489 22.2217 4.29534" stroke="#AEAEAE" stroke-width="1.5" stroke-miterlimit="10"/>
</svg>
