<svg width="51" height="62" viewBox="0 0 51 62" fill="none" xmlns="http://www.w3.org/2000/svg">
<path d="M29.6273 12.1758H28.8462" stroke="#AEAEAE" stroke-width="1.5" stroke-miterlimit="10"/>
<path d="M21.2671 12.1758H22.2253" stroke="#AEAEAE" stroke-width="1.5" stroke-miterlimit="10"/>
<path d="M16.6676 12.1758H15.7428L8.52411 17.1195L1.12305 31.3616L9.63351 36.4714L9.81816 60.5168C9.81897 60.6613 9.87704 60.7996 9.9797 60.9015C10.0824 61.0034 10.2212 61.0605 10.366 61.0605H40.4277C40.5726 61.0605 40.7115 61.0034 40.8143 60.9015C40.9171 60.7997 40.9753 60.6614 40.9763 60.5168L41.1572 36.4714L49.6677 31.3616L42.2658 17.1195L35.0471 12.1758H34.5707" stroke="#AEAEAE" stroke-width="1.5" stroke-miterlimit="10"/>
<path d="M25.4198 19.3398L22.9419 20.7754" stroke="#AEAEAE" stroke-width="1.5" stroke-miterlimit="10"/>
<path d="M16.6678 12.1729L16.4528 11.2551C16.4223 11.125 16.4273 10.989 16.4674 10.8615C16.5075 10.7339 16.5812 10.6194 16.6808 10.5299L19.066 8.37695" stroke="#AEAEAE" stroke-width="1.5" stroke-miterlimit="10"/>
<path d="M24.897 18.437L21.2671 12.1758" stroke="#AEAEAE" stroke-width="1.5" stroke-miterlimit="10"/>
<path d="M21.2672 12.1729L19.0659 8.37695" stroke="#AEAEAE" stroke-width="1.5" stroke-miterlimit="10"/>
<path d="M16.668 12.1758L19.0114 22.1689C19.0325 22.2594 19.0747 22.3437 19.1344 22.4151C19.1941 22.4864 19.2697 22.5428 19.3552 22.5796C19.4407 22.6165 19.5337 22.6329 19.6266 22.6274C19.7196 22.6219 19.81 22.5948 19.8905 22.5481L22.9421 20.7788" stroke="#AEAEAE" stroke-width="1.5" stroke-miterlimit="10"/>
<path d="M24.897 18.4375L25.4198 19.339" stroke="#AEAEAE" stroke-width="1.5" stroke-miterlimit="10"/>
<path d="M27.4649 31.9785H24.3852C24.0022 31.9785 23.635 31.8267 23.3643 31.5565C23.0935 31.2863 22.9414 30.9198 22.9414 30.5377V20.7793" stroke="#AEAEAE" stroke-width="1.5" stroke-miterlimit="10"/>
<path d="M25.4199 19.339L25.9503 18.4375" stroke="#AEAEAE" stroke-width="1.5" stroke-miterlimit="10"/>
<path d="M25.4199 19.3398L27.4655 20.6133" stroke="#AEAEAE" stroke-width="1.5" stroke-miterlimit="10"/>
<path d="M29.627 12.1754L29.8405 11.8125" stroke="#AEAEAE" stroke-width="1.5" stroke-miterlimit="10"/>
<path d="M25.9502 18.437L29.6272 12.1758" stroke="#AEAEAE" stroke-width="1.5" stroke-miterlimit="10"/>
<path d="M34.5711 12.1729L34.6957 11.7735C34.7364 11.6432 34.7407 11.5043 34.708 11.3719C34.6753 11.2394 34.607 11.1183 34.5103 11.0217L31.8584 8.37695" stroke="#AEAEAE" stroke-width="1.5" stroke-miterlimit="10"/>
<path d="M34.571 12.1758L31.4419 22.215C31.4147 22.3018 31.368 22.3812 31.3053 22.4471C31.2426 22.513 31.1656 22.5637 31.0802 22.5954C30.9948 22.627 30.9033 22.6387 30.8127 22.6296C30.7221 22.6204 30.6348 22.5907 30.5575 22.5427L27.4648 20.6149" stroke="#AEAEAE" stroke-width="1.5" stroke-miterlimit="10"/>
<path d="M31.859 8.37695L29.8408 11.8098" stroke="#AEAEAE" stroke-width="1.5" stroke-miterlimit="10"/>
<path d="M31.858 8.37695C25.6552 13.7451 19.0649 8.37695 19.0649 8.37695" stroke="#AEAEAE" stroke-width="1.5" stroke-miterlimit="10"/>
<path d="M22.2246 12.1758C24.3777 12.8643 26.6929 12.8643 28.8461 12.1758" stroke="#AEAEAE" stroke-width="1.5" stroke-miterlimit="10"/>
<path d="M22.2249 12.1749C21.7908 12.0411 21.3699 11.8681 20.9673 11.6582" stroke="#AEAEAE" stroke-width="1.5" stroke-miterlimit="10"/>
<path d="M28.8462 12.1756C29.1722 12.0733 29.5035 11.9536 29.8409 11.8135" stroke="#AEAEAE" stroke-width="1.5" stroke-miterlimit="10"/>
<path d="M25.4623 26.7319C25.9382 26.7319 26.324 26.3472 26.324 25.8728C26.324 25.3983 25.9382 25.0137 25.4623 25.0137C24.9864 25.0137 24.6006 25.3983 24.6006 25.8728C24.6006 26.3472 24.9864 26.7319 25.4623 26.7319Z" stroke="#AEAEAE" stroke-width="1.5" stroke-miterlimit="10"/>
<path d="M25.4623 30.1322C25.9382 30.1322 26.324 29.7476 26.324 29.2732C26.324 28.7987 25.9382 28.4141 25.4623 28.4141C24.9864 28.4141 24.6006 28.7987 24.6006 29.2732C24.6006 29.7476 24.9864 30.1322 25.4623 30.1322Z" stroke="#AEAEAE" stroke-width="1.5" stroke-miterlimit="10"/>
<path d="M9.6377 36.4709V27.3359" stroke="#AEAEAE" stroke-width="1.5" stroke-miterlimit="10"/>
<path d="M41.1431 36.4709V27.3359" stroke="#AEAEAE" stroke-width="1.5" stroke-miterlimit="10"/>
<path d="M2.21045 29.2734L9.63733 33.5872" stroke="#AEAEAE" stroke-width="1.5" stroke-miterlimit="10"/>
<path d="M41.1431 33.7815L48.5814 29.2734" stroke="#AEAEAE" stroke-width="1.5" stroke-miterlimit="10"/>
<path d="M9.6377 25.873V25.0146" stroke="#AEAEAE" stroke-width="1.5" stroke-miterlimit="10"/>
<path d="M22.4951 14.2992C22.4951 14.2992 25.2435 13.1295 28.3772 14.2992" stroke="#AEAEAE" stroke-width="1.5" stroke-miterlimit="10"/>
<path d="M25.5345 13.7781L25.4585 8.37634C25.4585 8.37634 28.846 8.41956 28.843 5.66826C28.8399 2.91696 28.6401 1.11133 25.6819 1.11133C22.7238 1.11133 22.1501 3.1748 22.2215 4.2964" stroke="#AEAEAE" stroke-width="1.5" stroke-miterlimit="10"/>
</svg>
