<svg width="97" height="62" viewBox="0 0 97 62" fill="none" xmlns="http://www.w3.org/2000/svg">
<path d="M34.9077 10.4489L35.5705 3.62919C35.6356 2.95831 35.9512 2.33549 36.4556 1.88231C36.96 1.42912 37.6171 1.17809 38.2986 1.17822H58.1432C58.7877 1.17833 59.4115 1.40301 59.9052 1.8128C60.3988 2.22259 60.7307 2.79129 60.8424 3.419L62.0936 10.4489H92.0628C92.5563 10.4489 93.045 10.5451 93.5009 10.7319C93.9568 10.9187 94.371 11.1925 94.7199 11.5376C95.0688 11.8828 95.3456 12.2925 95.5343 12.7435C95.723 13.1944 95.8201 13.6777 95.8199 14.1657V57.1087C95.8199 58.0943 95.4241 59.0395 94.7196 59.7365C94.015 60.4335 93.0594 60.8252 92.0628 60.8255H4.93849C3.94172 60.8255 2.98578 60.4339 2.28096 59.7369C1.57614 59.0399 1.18018 58.0945 1.18018 57.1087V14.1657C1.18018 13.18 1.57614 12.2346 2.28096 11.5375C2.98578 10.8405 3.94172 10.4489 4.93849 10.4489H34.9077Z" stroke="#AEAEAE" stroke-width="1.5" stroke-miterlimit="10"/>
<path d="M8.59467 3.59351H11.1486C12.053 3.59351 12.9204 3.94882 13.5599 4.58127C14.1995 5.21373 14.5587 6.07153 14.5587 6.96596V10.0605C14.5587 10.1638 14.5172 10.2629 14.4434 10.336C14.3695 10.409 14.2693 10.45 14.1649 10.45H5.57841C5.47396 10.45 5.37378 10.409 5.29992 10.336C5.22606 10.2629 5.18457 10.1638 5.18457 10.0605V6.96596C5.18457 6.07153 5.54385 5.21373 6.18336 4.58127C6.82288 3.94882 7.69025 3.59351 8.59467 3.59351V3.59351Z" stroke="#AEAEAE" stroke-width="1.5" stroke-miterlimit="10"/>
<path d="M16.1222 14.7761H3.62256V19.4121H16.1222V14.7761Z" stroke="#AEAEAE" stroke-width="1.5" stroke-miterlimit="10"/>
<path d="M48.5 50.314C56.6972 50.314 63.3424 43.7422 63.3424 35.6355C63.3424 27.5288 56.6972 20.957 48.5 20.957C40.3028 20.957 33.6577 27.5288 33.6577 35.6355C33.6577 43.7422 40.3028 50.314 48.5 50.314Z" stroke="#AEAEAE" stroke-width="1.5" stroke-miterlimit="10"/>
<path d="M51.2209 25.3435C52.7258 25.7332 54.1275 26.4406 55.3297 27.4169C56.5318 28.3933 57.506 29.6155 58.1852 30.9995" stroke="#AEAEAE" stroke-width="1.5" stroke-miterlimit="10"/>
<path d="M30.1899 25.0013C30.7893 23.997 31.4721 23.0438 32.2312 22.1514" stroke="#AEAEAE" stroke-width="1.5" stroke-miterlimit="10"/>
<path d="M34.9065 19.5072C38.8943 16.2271 43.9605 14.5081 49.1445 14.676C54.3285 14.844 59.27 16.8873 63.0321 20.4186C66.7941 23.9498 69.1153 28.7235 69.5554 33.8345C69.9956 38.9455 68.5241 44.0386 65.42 48.1482C62.3159 52.2577 57.795 55.098 52.7143 56.1305C47.6337 57.163 42.3466 56.316 37.8554 53.75C33.3642 51.1841 29.9811 47.0776 28.3476 42.209C26.7141 37.3405 26.9437 32.0485 28.9929 27.3363" stroke="#AEAEAE" stroke-width="1.5" stroke-miterlimit="10"/>
<path d="M89.0863 19.4108C90.3807 19.4108 91.4301 18.3731 91.4301 17.0929C91.4301 15.8127 90.3807 14.7749 89.0863 14.7749C87.7918 14.7749 86.7424 15.8127 86.7424 17.0929C86.7424 18.3731 87.7918 19.4108 89.0863 19.4108Z" stroke="#AEAEAE" stroke-width="1.5" stroke-miterlimit="10"/>
</svg>
