<svg width="97" height="62" viewBox="0 0 97 62" fill="none" xmlns="http://www.w3.org/2000/svg">
<path d="M34.9077 10.458L35.5705 3.63123C35.6356 2.95965 35.9512 2.33619 36.4556 1.88254C36.96 1.42889 37.6171 1.17761 38.2986 1.17773H58.1432C58.7877 1.17784 59.4115 1.40276 59.9052 1.81297C60.3988 2.22318 60.7307 2.79246 60.8424 3.42082L62.0936 10.458H92.0628C92.5563 10.458 93.045 10.5542 93.5009 10.7412C93.9568 10.9282 94.371 11.2023 94.7199 11.5478C95.0688 11.8933 95.3456 12.3035 95.5343 12.7549C95.723 13.2063 95.8201 13.6901 95.8199 14.1786V57.1658C95.8199 58.1524 95.4241 59.0986 94.7196 59.7963C94.015 60.494 93.0594 60.8862 92.0628 60.8865H4.93849C3.94172 60.8865 2.98578 60.4945 2.28096 59.7967C1.57614 59.099 1.18018 58.1526 1.18018 57.1658V14.1786C1.18018 13.1918 1.57614 12.2455 2.28096 11.5477C2.98578 10.85 3.94172 10.458 4.93849 10.458H34.9077Z" stroke="#AEAEAE" stroke-width="1.5" stroke-miterlimit="10"/>
<path d="M8.59466 3.59277H11.1486C12.053 3.59277 12.9204 3.94847 13.5599 4.58162C14.1994 5.21477 14.5587 6.0735 14.5587 6.96891V10.0669C14.5587 10.1703 14.5172 10.2695 14.4434 10.3426C14.3695 10.4157 14.2693 10.4568 14.1649 10.4568H5.57841C5.47396 10.4568 5.37378 10.4157 5.29992 10.3426C5.22606 10.2695 5.18457 10.1703 5.18457 10.0669V6.96891C5.18457 6.0735 5.54385 5.21477 6.18336 4.58162C6.82288 3.94847 7.69025 3.59277 8.59466 3.59277V3.59277Z" stroke="#AEAEAE" stroke-width="1.5" stroke-miterlimit="10"/>
<path d="M16.1223 14.79H3.62256V19.4312H16.1223V14.79Z" stroke="#AEAEAE" stroke-width="1.5" stroke-miterlimit="10"/>
<path d="M48.5 50.3638C56.6972 50.3638 63.3423 43.7852 63.3423 35.6702C63.3423 27.5551 56.6972 20.9766 48.5 20.9766C40.3028 20.9766 33.6577 27.5551 33.6577 35.6702C33.6577 43.7852 40.3028 50.3638 48.5 50.3638Z" stroke="#AEAEAE" stroke-width="1.5" stroke-miterlimit="10"/>
<path d="M51.2207 25.3682C52.7255 25.7583 54.1272 26.4663 55.3294 27.4437C56.5316 28.421 57.5057 29.6444 58.1849 31.0298" stroke="#AEAEAE" stroke-width="1.5" stroke-miterlimit="10"/>
<path d="M30.1899 25.0218C30.7893 24.0175 31.4721 23.0643 32.2312 22.1719" stroke="#AEAEAE" stroke-width="1.5" stroke-miterlimit="10"/>
<path d="M34.9063 19.5251C38.8941 16.2416 43.9602 14.5208 49.1442 14.689C54.3282 14.8572 59.2697 16.9026 63.0318 20.4374C66.7939 23.9723 69.115 28.7509 69.5552 33.8672C69.9953 38.9835 68.5238 44.0819 65.4197 48.1957C62.3156 52.3094 57.7947 55.1526 52.7141 56.1862C47.6334 57.2198 42.3463 56.3719 37.8551 53.8033C33.3639 51.2347 29.9809 47.124 28.3474 42.2504C26.7139 37.3769 26.9435 32.0794 28.9927 27.3623" stroke="#AEAEAE" stroke-width="1.5" stroke-miterlimit="10"/>
<path d="M89.086 19.428C90.3805 19.428 91.4299 18.3895 91.4299 17.1085C91.4299 15.8275 90.3805 14.7891 89.086 14.7891C87.7916 14.7891 86.7422 15.8275 86.7422 17.1085C86.7422 18.3895 87.7916 19.428 89.086 19.428Z" stroke="#AEAEAE" stroke-width="1.5" stroke-miterlimit="10"/>
</svg>
