<svg width="80" height="62" viewBox="0 0 80 62" fill="none" xmlns="http://www.w3.org/2000/svg">
<path d="M1 48.7109H16.7408V57.9491C16.7408 58.7743 16.4125 59.5657 15.8281 60.1492C15.2437 60.7327 14.4511 61.0605 13.6246 61.0605H4.11628C3.28979 61.0605 2.49715 60.7327 1.91274 60.1492C1.32832 59.5657 1 58.7743 1 57.9491V48.7109Z" stroke="#AEAEAE" stroke-width="1.5" stroke-miterlimit="10"/>
<path d="M62.8394 48.7109H78.5802V57.9489C78.5792 58.7738 78.2501 59.5645 77.6654 60.1472C77.0807 60.7299 76.2881 61.0569 75.462 61.0564H65.9556C65.1298 61.0564 64.3378 60.7291 63.7535 60.1465C63.1692 59.5638 62.8404 58.7734 62.8394 57.9489V48.7109Z" stroke="#AEAEAE" stroke-width="1.5" stroke-miterlimit="10"/>
<path d="M65.0884 30.6533H62.5578C59.4533 30.6533 56.9365 33.1661 56.9365 36.2657V36.2667C56.9365 39.3664 59.4533 41.8792 62.5578 41.8792H65.0884C68.193 41.8792 70.7097 39.3664 70.7097 36.2667V36.2657C70.7097 33.1661 68.193 30.6533 65.0884 30.6533Z" stroke="#AEAEAE" stroke-width="1.5" stroke-miterlimit="10"/>
<path d="M17.0225 30.6533H14.4919C11.3873 30.6533 8.87061 33.1661 8.87061 36.2657V36.2667C8.87061 39.3664 11.3873 41.8792 14.4919 41.8792H17.0225C20.1271 41.8792 22.6438 39.3664 22.6438 36.2667V36.2657C22.6438 33.1661 20.1271 30.6533 17.0225 30.6533Z" stroke="#AEAEAE" stroke-width="1.5" stroke-miterlimit="10"/>
<path d="M29.2651 48.7063V47.5848C29.2651 46.9897 29.5021 46.4189 29.9239 45.9981C30.3457 45.5772 30.9178 45.3408 31.5143 45.3408H47.1301C47.7264 45.3411 48.2983 45.5776 48.7198 45.9984C49.1414 46.4192 49.3782 46.9898 49.3782 47.5848V48.7063" stroke="#AEAEAE" stroke-width="1.5" stroke-miterlimit="10"/>
<path d="M29.2651 48.708V49.8315C29.2651 50.4266 29.5021 50.9974 29.9239 51.4182C30.3457 51.839 30.9178 52.0754 31.5143 52.0754H47.1301C47.7264 52.0752 48.2983 51.8386 48.7198 51.4179C49.1414 50.9971 49.3782 50.4264 49.3782 49.8315V48.708" stroke="#AEAEAE" stroke-width="1.5" stroke-miterlimit="10"/>
<path d="M49.3779 48.7085H78.58V31.4958C78.58 28.9154 77.5533 26.4408 75.7259 24.6162C73.8984 22.7916 71.4199 21.7666 68.8354 21.7666" stroke="#AEAEAE" stroke-width="1.5" stroke-miterlimit="10"/>
<path d="M10.7445 21.7666C9.46483 21.7666 8.1977 22.0183 7.01544 22.5072C5.83318 22.9961 4.75896 23.7128 3.8541 24.6162C2.94924 25.5196 2.23146 26.5922 1.74176 27.7726C1.25205 28.953 1 30.2181 1 31.4958V48.7085H29.265" stroke="#AEAEAE" stroke-width="1.5" stroke-miterlimit="10"/>
<path d="M64.36 19.6104H45.2539" stroke="#AEAEAE" stroke-width="1.5" stroke-miterlimit="10"/>
<path d="M64.364 19.6077H67.5826L62.3305 5.75078C62.0401 4.98844 61.5252 4.33183 60.8536 3.86745C60.1821 3.40308 59.3854 3.15274 58.5685 3.14941H41.8237" stroke="#AEAEAE" stroke-width="1.5" stroke-miterlimit="10"/>
<path d="M37.7605 3.14941H21.0117C20.1957 3.15234 19.3996 3.40173 18.7282 3.86479C18.0567 4.32785 17.5413 4.98292 17.2497 5.7439L11.9995 19.6077H45.2549" stroke="#AEAEAE" stroke-width="1.5" stroke-miterlimit="10"/>
<path d="M10.7447 21.7664H8.87451L15.234 4.98621C15.6783 3.81398 16.4694 2.80455 17.5022 2.09215C18.535 1.37975 19.7605 0.998138 21.0158 0.998047H58.5685C59.8238 0.998138 61.0493 1.37975 62.0821 2.09215C63.1149 2.80455 63.906 3.81398 64.3503 4.98621L70.7098 21.7664H68.8396" stroke="#AEAEAE" stroke-width="1.5" stroke-miterlimit="10"/>
<path d="M64.4219 21.7666H68.8354" stroke="#AEAEAE" stroke-width="1.5" stroke-miterlimit="10"/>
<path d="M45.192 21.7666H10.7446" stroke="#AEAEAE" stroke-width="1.5" stroke-miterlimit="10"/>
<path d="M45.1919 21.7666H64.422" stroke="#AEAEAE" stroke-width="1.5" stroke-miterlimit="10"/>
<path d="M37.7602 3.14941V4.55469H34.9806C34.3841 4.55469 33.812 4.79126 33.3902 5.21238C32.9684 5.63349 32.7314 6.20463 32.7314 6.80017V8.09243C32.7314 8.25336 32.7632 8.41271 32.8249 8.56139C32.8866 8.71007 32.977 8.84516 33.0909 8.95895C33.2049 9.07274 33.3402 9.16301 33.4891 9.22459C33.6381 9.28617 33.7977 9.31787 33.9589 9.31787H45.6207C45.7819 9.31787 45.9415 9.28617 46.0904 9.22459C46.2394 9.16301 46.3747 9.07274 46.4886 8.95895C46.6026 8.84516 46.693 8.71007 46.7547 8.56139C46.8164 8.41271 46.8481 8.25336 46.8481 8.09243V6.80411C46.8481 6.20874 46.6113 5.63773 46.1897 5.21665C45.7682 4.79557 45.1964 4.55888 44.6 4.55862H41.8233V3.14941" stroke="#AEAEAE" stroke-width="1.5" stroke-miterlimit="10"/>
<path d="M37.7593 3.1543H41.8195" stroke="#AEAEAE" stroke-width="1.5" stroke-miterlimit="10"/>
<path d="M64.3639 19.6094C64.0408 17.3094 62.8961 15.2035 61.1407 13.6796C59.3853 12.1557 57.1375 11.3164 54.8113 11.3164C52.4852 11.3164 50.2373 12.1557 48.482 13.6796C46.7266 15.2035 45.5819 17.3094 45.2588 19.6094" stroke="#AEAEAE" stroke-width="1.5" stroke-miterlimit="10"/>
<path d="M16.7407 50.4863H29.2649" stroke="#AEAEAE" stroke-width="1.5" stroke-miterlimit="10"/>
<path d="M49.2808 50.4863H62.8394" stroke="#AEAEAE" stroke-width="1.5" stroke-miterlimit="10"/>
<path d="M29.7334 34.0215H49.8465" stroke="#AEAEAE" stroke-width="1.5" stroke-miterlimit="10"/>
<path d="M29.7334 36.2666H49.8465" stroke="#AEAEAE" stroke-width="1.5" stroke-miterlimit="10"/>
<path d="M29.7334 38.5117H49.8465" stroke="#AEAEAE" stroke-width="1.5" stroke-miterlimit="10"/>
</svg>
