<svg width="80" height="62" viewBox="0 0 80 62" fill="none" xmlns="http://www.w3.org/2000/svg">
<path d="M1 48.6633H16.7408V57.8917C16.7408 58.716 16.4125 59.5066 15.8281 60.0895C15.2437 60.6724 14.451 60.9999 13.6246 60.9999H4.11627C3.28979 60.9999 2.49715 60.6724 1.91274 60.0895C1.32832 59.5066 1 58.716 1 57.8917V48.6633Z" stroke="#AEAEAE" stroke-width="1.5" stroke-miterlimit="10"/>
<path d="M62.8391 48.6633H78.5799V57.8917C78.5789 58.7157 78.2498 59.5056 77.6651 60.0877C77.0804 60.6698 76.2878 60.9965 75.4617 60.9959H65.9554C65.1296 60.9959 64.3375 60.669 63.7532 60.087C63.1689 59.5049 62.8402 58.7153 62.8391 57.8917V48.6633Z" stroke="#AEAEAE" stroke-width="1.5" stroke-miterlimit="10"/>
<path d="M65.0884 30.624H62.5578C59.4533 30.624 56.9365 33.1342 56.9365 36.2307V36.2317C56.9365 39.3282 59.4533 41.8384 62.5578 41.8384H65.0884C68.193 41.8384 70.7097 39.3282 70.7097 36.2317V36.2307C70.7097 33.1342 68.193 30.624 65.0884 30.624Z" stroke="#AEAEAE" stroke-width="1.5" stroke-miterlimit="10"/>
<path d="M17.0223 30.624H14.4917C11.3871 30.624 8.87036 33.1342 8.87036 36.2307V36.2317C8.87036 39.3282 11.3871 41.8384 14.4917 41.8384H17.0223C20.1268 41.8384 22.6436 39.3282 22.6436 36.2317V36.2307C22.6436 33.1342 20.1268 30.624 17.0223 30.624Z" stroke="#AEAEAE" stroke-width="1.5" stroke-miterlimit="10"/>
<path d="M29.2649 48.6606V47.5394C29.2649 46.9445 29.5019 46.3739 29.9236 45.9532C30.3454 45.5325 30.9175 45.2961 31.514 45.2961H47.1298C47.7262 45.2964 48.298 45.5329 48.7195 45.9535C49.1411 46.3742 49.378 46.9446 49.378 47.5394V48.6606" stroke="#AEAEAE" stroke-width="1.5" stroke-miterlimit="10"/>
<path d="M29.2649 48.6604V49.7835C29.2649 50.3785 29.5019 50.9491 29.9236 51.3697C30.3454 51.7904 30.9175 52.0268 31.514 52.0268H47.1298C47.7262 52.0265 48.298 51.7901 48.7195 51.3694C49.1411 50.9487 49.378 50.3783 49.378 49.7835V48.6604" stroke="#AEAEAE" stroke-width="1.5" stroke-miterlimit="10"/>
<path d="M49.3779 48.6605H78.58V31.4653C78.58 28.8876 77.5533 26.4155 75.7259 24.5928C73.8984 22.7701 71.4199 21.7461 68.8354 21.7461" stroke="#AEAEAE" stroke-width="1.5" stroke-miterlimit="10"/>
<path d="M10.7445 21.7461C9.46484 21.7461 8.1977 21.9975 7.01545 22.4859C5.83319 22.9744 4.75896 23.6903 3.8541 24.5928C2.94924 25.4953 2.23146 26.5667 1.74176 27.7459C1.25205 28.9251 1 30.189 1 31.4653V48.6605H29.265" stroke="#AEAEAE" stroke-width="1.5" stroke-miterlimit="10"/>
<path d="M64.36 19.5923H45.2539" stroke="#AEAEAE" stroke-width="1.5" stroke-miterlimit="10"/>
<path d="M64.3638 19.5921H67.5825L62.3303 5.74954C62.0399 4.988 61.525 4.33206 60.8534 3.86817C60.1819 3.40428 59.3852 3.1542 58.5683 3.15088H41.8235" stroke="#AEAEAE" stroke-width="1.5" stroke-miterlimit="10"/>
<path d="M37.7604 3.15088H21.0117C20.1957 3.1538 19.3996 3.40293 18.7282 3.86551C18.0567 4.3281 17.5413 4.98249 17.2497 5.74267L11.9995 19.5921H45.2548" stroke="#AEAEAE" stroke-width="1.5" stroke-miterlimit="10"/>
<path d="M10.7444 21.7461H8.87427L15.2338 4.9839C15.6781 3.81292 16.4692 2.80457 17.502 2.09294C18.5348 1.3813 19.7603 1.00009 21.0155 1H58.5683C59.8236 1.00009 61.0491 1.3813 62.0819 2.09294C63.1146 2.80457 63.9058 3.81292 64.35 4.9839L70.7096 21.7461H68.8394" stroke="#AEAEAE" stroke-width="1.5" stroke-miterlimit="10"/>
<path d="M64.4219 21.7461H68.8354" stroke="#AEAEAE" stroke-width="1.5" stroke-miterlimit="10"/>
<path d="M45.192 21.7461H10.7446" stroke="#AEAEAE" stroke-width="1.5" stroke-miterlimit="10"/>
<path d="M45.1919 21.7461H64.422" stroke="#AEAEAE" stroke-width="1.5" stroke-miterlimit="10"/>
<path d="M37.7604 3.15088V4.55476H34.9808C34.3843 4.55476 33.8122 4.79111 33.3904 5.21181C32.9686 5.6325 32.7317 6.20309 32.7317 6.79804V8.08903C32.7317 8.24979 32.7634 8.40899 32.8251 8.55752C32.8868 8.70605 32.9772 8.84101 33.0912 8.95469C33.2052 9.06837 33.3405 9.15854 33.4894 9.22007C33.6383 9.28159 33.7979 9.31326 33.9591 9.31326H45.621C45.7822 9.31326 45.9418 9.28159 46.0907 9.22007C46.2396 9.15854 46.375 9.06837 46.4889 8.95469C46.6029 8.84101 46.6933 8.70605 46.755 8.55752C46.8167 8.40899 46.8484 8.24979 46.8484 8.08903V6.80197C46.8484 6.20718 46.6116 5.63675 46.19 5.21608C45.7684 4.79541 45.1966 4.55895 44.6003 4.55869H41.8236V3.15088" stroke="#AEAEAE" stroke-width="1.5" stroke-miterlimit="10"/>
<path d="M37.7595 3.15503H41.8197" stroke="#AEAEAE" stroke-width="1.5" stroke-miterlimit="10"/>
<path d="M64.3639 19.592C64.0408 17.2944 62.8961 15.1906 61.1408 13.6682C59.3854 12.1458 57.1375 11.3074 54.8114 11.3074C52.4852 11.3074 50.2374 12.1458 48.482 13.6682C46.7266 15.1906 45.5819 17.2944 45.2588 19.592" stroke="#AEAEAE" stroke-width="1.5" stroke-miterlimit="10"/>
<path d="M16.7407 50.4365H29.2649" stroke="#AEAEAE" stroke-width="1.5" stroke-miterlimit="10"/>
<path d="M49.2805 50.4365H62.8392" stroke="#AEAEAE" stroke-width="1.5" stroke-miterlimit="10"/>
<path d="M29.7334 33.9883H49.8465" stroke="#AEAEAE" stroke-width="1.5" stroke-miterlimit="10"/>
<path d="M29.7334 36.2317H49.8465" stroke="#AEAEAE" stroke-width="1.5" stroke-miterlimit="10"/>
<path d="M29.7334 38.4741H49.8465" stroke="#AEAEAE" stroke-width="1.5" stroke-miterlimit="10"/>
</svg>
