<svg width="136" height="62" viewBox="0 0 136 62" fill="none" xmlns="http://www.w3.org/2000/svg">
<path d="M115.928 16.0493C113.945 18.9824 113.309 22.6159 113.309 22.6159V38.4969L69.7143 38.5643H23.6548V23.2254C23.6548 23.2254 24.0997 19.5717 21.0349 16.2817" stroke="#AEAEAE" stroke-width="1.5" stroke-miterlimit="10"/>
<path d="M21.0349 59.1108H67.2466H69.7143H115.928" stroke="#AEAEAE" stroke-width="1.5" stroke-miterlimit="10"/>
<path d="M115.928 59.1091H122.893L123.607 41.014C123.607 41.014 141.811 31.4167 130.741 16.4785C128.787 13.8469 124.2 12.9225 120.538 13.5758" stroke="#AEAEAE" stroke-width="1.5" stroke-miterlimit="10"/>
<path d="M115.928 16.0493C116.794 14.768 118.527 13.9362 120.538 13.5759" stroke="#AEAEAE" stroke-width="1.5" stroke-miterlimit="10"/>
<path d="M21.0349 59.1091V59.7456C21.0349 60.0783 21.1677 60.3973 21.404 60.6326C21.6403 60.8678 21.9608 61 22.295 61H114.568C114.927 61 115.271 60.858 115.525 60.6054C115.778 60.3528 115.921 60.0102 115.921 59.653V59.1142" stroke="#AEAEAE" stroke-width="1.5" stroke-miterlimit="10"/>
<path d="M21.0348 16.2817C19.7257 14.8758 17.7823 13.5372 14.8816 12.5775L14.6956 12.5186" stroke="#AEAEAE" stroke-width="1.5" stroke-miterlimit="10"/>
<path d="M14.6957 12.5168C11.2537 11.4157 6.33014 10.9122 3.47342 15.8658C-5.638 31.6592 13.3561 41.0141 13.3561 41.0141L14.0699 59.1092H21.0349" stroke="#AEAEAE" stroke-width="1.5" stroke-miterlimit="10"/>
<path d="M14.6956 12.5168V5.61344C14.6956 4.38988 15.1838 3.21643 16.0529 2.35125C16.922 1.48606 18.1008 1 19.3299 1H115.907C117.136 1 118.315 1.48606 119.184 2.35125C120.053 3.21643 120.542 4.38988 120.542 5.61344V13.5742" stroke="#AEAEAE" stroke-width="1.5" stroke-miterlimit="10"/>
<path d="M54.3109 30.324H81.542C82.2597 30.324 82.9481 30.6078 83.4556 31.113C83.9631 31.6182 84.2482 32.3035 84.2482 33.018V38.5642H51.6047V33.0146C51.6056 32.3007 51.8911 31.6163 52.3986 31.1118C52.906 30.6073 53.5938 30.324 54.3109 30.324Z" stroke="#AEAEAE" stroke-width="1.5" stroke-miterlimit="10"/>
<path d="M86.5875 30.324H113.311V38.5608H84.2517V32.6492C84.2517 32.0325 84.4978 31.4411 84.9358 31.005C85.3739 30.569 85.968 30.324 86.5875 30.324V30.324Z" stroke="#AEAEAE" stroke-width="1.5" stroke-miterlimit="10"/>
<path d="M23.6531 30.324H48.9053C49.623 30.324 50.3113 30.6078 50.8188 31.113C51.3263 31.6182 51.6114 32.3035 51.6114 33.018V38.5642H23.6531V30.324Z" stroke="#AEAEAE" stroke-width="1.5" stroke-miterlimit="10"/>
<path d="M51.6082 24.0336V7.28882" stroke="#AEAEAE" stroke-width="1.5" stroke-miterlimit="10"/>
<path d="M84.2517 24.0336V7.28882" stroke="#AEAEAE" stroke-width="1.5" stroke-miterlimit="10"/>
</svg>
