<svg width="136" height="62" viewBox="0 0 136 62" fill="none" xmlns="http://www.w3.org/2000/svg">
<path d="M115.928 16.0635C113.946 18.9996 113.31 22.6369 113.31 22.6369V38.5344L69.7145 38.6018H23.6551V23.247C23.6551 23.247 24.0999 19.5895 21.0352 16.2961" stroke="#AEAEAE" stroke-width="1.5" stroke-miterlimit="10"/>
<path d="M21.0352 59.1699H67.2468H69.7145H115.928" stroke="#AEAEAE" stroke-width="1.5" stroke-miterlimit="10"/>
<path d="M115.928 59.168H122.893L123.607 41.0542C123.607 41.0542 141.811 31.447 130.741 16.4935C128.787 13.8591 124.2 12.9337 120.538 13.5877" stroke="#AEAEAE" stroke-width="1.5" stroke-miterlimit="10"/>
<path d="M115.928 16.0613C116.794 14.78 118.527 13.9482 120.538 13.5879" stroke="#AEAEAE" stroke-width="1.5" stroke-miterlimit="10"/>
<path d="M21.0352 59.168V59.8044C21.0352 60.1371 21.1679 60.4562 21.4042 60.6914C21.6405 60.9266 21.961 61.0588 22.2952 61.0588H114.568C114.927 61.0588 115.271 60.9169 115.525 60.6643C115.779 60.4117 115.921 60.0691 115.921 59.7118V59.173" stroke="#AEAEAE" stroke-width="1.5" stroke-miterlimit="10"/>
<path d="M21.035 16.2935C19.7259 14.8872 17.7825 13.5482 14.8819 12.5882L14.6958 12.5293" stroke="#AEAEAE" stroke-width="1.5" stroke-miterlimit="10"/>
<path d="M14.6957 12.5273C11.2537 11.425 6.33014 10.9211 3.47341 15.8797C-5.638 31.6895 13.3561 41.0539 13.3561 41.0539L14.0698 59.1677H21.0349" stroke="#AEAEAE" stroke-width="1.5" stroke-miterlimit="10"/>
<path d="M14.6958 12.5276V5.61662C14.6958 4.3917 15.1841 3.21694 16.0532 2.35079C16.9223 1.48464 18.101 0.998047 19.3302 0.998047H115.907C117.136 0.998047 118.315 1.48464 119.184 2.35079C120.053 3.21694 120.542 4.3917 120.542 5.61662V13.5862" stroke="#AEAEAE" stroke-width="1.5" stroke-miterlimit="10"/>
<path d="M54.3107 30.3525H81.5417C82.2595 30.3525 82.9478 30.6367 83.4553 31.1424C83.9628 31.6482 84.2479 32.3341 84.2479 33.0494V38.6016H51.6045V33.046C51.6054 32.3314 51.8909 31.6463 52.3983 31.1412C52.9057 30.6362 53.5935 30.3525 54.3107 30.3525Z" stroke="#AEAEAE" stroke-width="1.5" stroke-miterlimit="10"/>
<path d="M86.5872 30.3525H113.311V38.5979H84.2515V32.6802C84.2515 32.0629 84.4976 31.4708 84.9356 31.0343C85.3736 30.5978 85.9678 30.3525 86.5872 30.3525V30.3525Z" stroke="#AEAEAE" stroke-width="1.5" stroke-miterlimit="10"/>
<path d="M23.6533 30.3525H48.9055C49.6232 30.3525 50.3116 30.6367 50.8191 31.1424C51.3266 31.6482 51.6117 32.3341 51.6117 33.0494V38.6016H23.6533V30.3525Z" stroke="#AEAEAE" stroke-width="1.5" stroke-miterlimit="10"/>
<path d="M51.6084 24.0559V7.29395" stroke="#AEAEAE" stroke-width="1.5" stroke-miterlimit="10"/>
<path d="M84.2515 24.0559V7.29395" stroke="#AEAEAE" stroke-width="1.5" stroke-miterlimit="10"/>
</svg>
