<svg width="62" height="62" viewBox="0 0 62 62" fill="none" xmlns="http://www.w3.org/2000/svg">
<path d="M31 60.8469C47.5685 60.8469 61 47.4016 61 30.816C61 14.2304 47.5685 0.785156 31 0.785156C14.4315 0.785156 1 14.2304 1 30.816C1 47.4016 14.4315 60.8469 31 60.8469Z" stroke="#AEAEAE" stroke-width="1.5" stroke-miterlimit="10"/>
<path d="M45.4445 36.7477C45.4445 36.7477 42.3592 43.4591 49.0858 48.3518C53.4192 43.8862 55.941 37.9686 56.1622 31.7469C56.1333 31.7286 49.6942 27.6847 45.4445 36.7477Z" stroke="#AEAEAE" stroke-width="1.5" stroke-miterlimit="10"/>
<path d="M17.8516 23.215C25.6299 19.6933 29.8887 20.246 29.8887 20.246C29.8887 20.246 34.7041 19.519 43.4072 23.0338C52.086 26.5356 55.6748 25.8581 55.6953 25.8543C53.3941 14.3051 43.2141 5.60449 31.0005 5.60449C18.8326 5.60449 8.68381 14.2396 6.33008 25.7203C6.3316 25.7211 10.0755 26.7366 17.8516 23.215Z" stroke="#AEAEAE" stroke-width="1.5" stroke-miterlimit="10"/>
<path d="M17.3984 52.0299C21.5048 54.6701 26.2893 56.0585 31.1696 56.0261C36.0499 55.9936 40.8156 54.5417 44.8865 51.8472C44.8614 51.8274 30.0759 41.7467 17.3984 52.0299Z" stroke="#AEAEAE" stroke-width="1.5" stroke-miterlimit="10"/>
<path d="M5.83398 31.5625C6.00079 37.5805 8.32184 43.3384 12.3742 47.7869C12.3781 47.7869 19.3313 45.4802 15.4436 36.1103C15.4451 36.1134 13.2602 29.1568 5.83398 31.5625Z" stroke="#AEAEAE" stroke-width="1.5" stroke-miterlimit="10"/>
<path d="M31.0001 36.0671C34.8621 36.0671 37.9928 34.1452 37.9928 31.7743C37.9928 29.4034 34.8621 27.4814 31.0001 27.4814C27.1381 27.4814 24.0073 29.4034 24.0073 31.7743C24.0073 34.1452 27.1381 36.0671 31.0001 36.0671Z" stroke="#AEAEAE" stroke-width="1.5" stroke-miterlimit="10"/>
</svg>
