<svg width="128" height="62" viewBox="0 0 128 62" fill="none" xmlns="http://www.w3.org/2000/svg">
<path d="M104.474 4.89648H23.0645V53.8679H104.474V4.89648Z" stroke="#AEAEAE" stroke-width="1.5" stroke-miterlimit="10"/>
<path d="M108.209 0.785156H19.3291V57.9806H34.89L34.1432 60.845H93.0215L92.3987 57.9806H108.209V0.785156Z" stroke="#AEAEAE" stroke-width="1.5" stroke-miterlimit="10"/>
<path d="M15.4716 22.2178H1.28027V60.8469H15.4716V22.2178Z" stroke="#AEAEAE" stroke-width="1.5" stroke-miterlimit="10"/>
<path d="M8.37573 36.1733C10.5756 36.1733 12.3589 34.3883 12.3589 32.1863C12.3589 29.9843 10.5756 28.1992 8.37573 28.1992C6.1759 28.1992 4.39258 29.9843 4.39258 32.1863C4.39258 34.3883 6.1759 36.1733 8.37573 36.1733Z" stroke="#AEAEAE" stroke-width="1.5" stroke-miterlimit="10"/>
<path d="M8.37573 53.8682C10.5756 53.8682 12.3589 52.083 12.3589 49.8809C12.3589 47.6787 10.5756 45.8936 8.37573 45.8936C6.1759 45.8936 4.39258 47.6787 4.39258 49.8809C4.39258 52.083 6.1759 53.8682 8.37573 53.8682Z" stroke="#AEAEAE" stroke-width="1.5" stroke-miterlimit="10"/>
<path d="M126.508 22.2178H112.316V60.8469H126.508V22.2178Z" stroke="#AEAEAE" stroke-width="1.5" stroke-miterlimit="10"/>
<path d="M119.412 36.1733C121.612 36.1733 123.395 34.3883 123.395 32.1863C123.395 29.9843 121.612 28.1992 119.412 28.1992C117.212 28.1992 115.429 29.9843 115.429 32.1863C115.429 34.3883 117.212 36.1733 119.412 36.1733Z" stroke="#AEAEAE" stroke-width="1.5" stroke-miterlimit="10"/>
<path d="M119.412 53.8682C121.612 53.8682 123.395 52.083 123.395 49.8809C123.395 47.6787 121.612 45.8936 119.412 45.8936C117.212 45.8936 115.429 47.6787 115.429 49.8809C115.429 52.083 117.212 53.8682 119.412 53.8682Z" stroke="#AEAEAE" stroke-width="1.5" stroke-miterlimit="10"/>
<path d="M63.7686 59.2229C64.8338 59.2229 65.6974 58.3591 65.6974 57.2936C65.6974 56.228 64.8338 55.3643 63.7686 55.3643C62.7034 55.3643 61.8398 56.228 61.8398 57.2936C61.8398 58.3591 62.7034 59.2229 63.7686 59.2229Z" stroke="#AEAEAE" stroke-width="1.5" stroke-miterlimit="10"/>
<path d="M27.1719 14.4915L35.1398 9.75684" stroke="#AEAEAE" stroke-width="1.5" stroke-miterlimit="10"/>
<path d="M25.6494 18.8494L40.9497 9.75684" stroke="#AEAEAE" stroke-width="1.5" stroke-miterlimit="10"/>
</svg>
