<svg width="51" height="62" viewBox="0 0 51 62" fill="none" xmlns="http://www.w3.org/2000/svg">
<path d="M45.3105 31.8339C44.3523 31.1186 43.304 30.7266 42.2012 30.7266C41.0659 30.7266 39.9843 31.1481 39.0049 31.9035" stroke="#AEAEAE" stroke-width="1.5" stroke-miterlimit="10"/>
<path d="M39.0047 31.9053C37.9322 32.7329 36.9823 33.9648 36.2148 35.4912" stroke="#AEAEAE" stroke-width="1.5" stroke-miterlimit="10"/>
<path d="M45.3105 31.8359C48.192 33.9877 50.2144 39.0391 50.2144 44.9284C50.2144 52.7718 46.6267 59.1301 42.2012 59.1301C38.8641 59.1301 36.0038 55.5123 34.7988 50.37" stroke="#AEAEAE" stroke-width="1.5" stroke-miterlimit="10"/>
<path d="M45.3105 31.8353V29.1494C45.3105 28.7925 45.2403 28.4391 45.1039 28.1093C44.9674 27.7796 44.7674 27.48 44.5153 27.2276C44.2632 26.9753 43.9639 26.7751 43.6345 26.6385C43.3051 26.5019 42.9521 26.4316 42.5956 26.4316H41.7198C41.3633 26.4316 41.0103 26.5019 40.6809 26.6385C40.3515 26.7751 40.0522 26.9753 39.8001 27.2276C39.548 27.48 39.348 27.7796 39.2115 28.1093C39.0751 28.4391 39.0049 28.7925 39.0049 29.1494V31.9058" stroke="#AEAEAE" stroke-width="1.5" stroke-miterlimit="10"/>
<path d="M34.7998 50.3701L36.2159 35.4941" stroke="#AEAEAE" stroke-width="1.5" stroke-miterlimit="10"/>
<path d="M34.7988 50.3693L33.3978 59.1831C33.276 60.2438 32.2019 61.0598 30.9183 61.0598H7.42901C6.16122 61.0598 5.09628 60.2673 4.95398 59.2195L1 30.0898" stroke="#AEAEAE" stroke-width="1.5" stroke-miterlimit="10"/>
<path d="M36.7298 30.0898L36.2158 35.4934" stroke="#AEAEAE" stroke-width="1.5" stroke-miterlimit="10"/>
<path d="M26.2212 17.6416H31.6072L36.7298 30.0903" stroke="#AEAEAE" stroke-width="1.5" stroke-miterlimit="10"/>
<path d="M11.5096 17.6416H6.51793L1.00098 30.0903" stroke="#AEAEAE" stroke-width="1.5" stroke-miterlimit="10"/>
<path d="M11.5088 17.6411V12.8762C11.5096 12.4897 11.6635 12.1193 11.9368 11.8463C12.2101 11.5732 12.5805 11.4199 12.9666 11.4199H13.2602" stroke="#AEAEAE" stroke-width="1.5" stroke-miterlimit="10"/>
<path d="M26.2212 17.6411V12.8762C26.2206 12.4896 26.0667 12.1191 25.7933 11.846C25.52 11.573 25.1496 11.4197 24.7634 11.4199H24.4697" stroke="#AEAEAE" stroke-width="1.5" stroke-miterlimit="10"/>
<path d="M26.2209 17.6416H11.5093" stroke="#AEAEAE" stroke-width="1.5" stroke-miterlimit="10"/>
<path d="M24.4698 11.4204V4.94953C24.4698 3.90153 24.0539 2.89646 23.3137 2.15541C22.5734 1.41436 21.5694 0.998047 20.5226 0.998047H17.2074C16.1606 0.998047 15.1566 1.41436 14.4164 2.15541C13.6761 2.89646 13.2603 3.90153 13.2603 4.94953V11.4204" stroke="#AEAEAE" stroke-width="1.5" stroke-miterlimit="10"/>
<path d="M24.4695 11.418H13.2607" stroke="#AEAEAE" stroke-width="1.5" stroke-miterlimit="10"/>
<path d="M31.1727 57.9045H7.09L4.46436 33.71L6.63511 34.3972C7.55912 34.6891 8.5514 34.6833 9.47193 34.3805L10.3045 34.1062C11.0861 33.8482 11.9298 33.8482 12.7114 34.1062L14.0292 34.5419C14.7569 34.7827 15.5392 34.8049 16.2794 34.6055L18.3411 34.0502C19.1634 33.8287 20.0358 33.8868 20.8215 34.2153L22.2596 34.8162C22.7683 35.0296 23.3163 35.1331 23.8677 35.1201C24.4191 35.107 24.9616 34.9776 25.4597 34.7404L26.1651 34.404C26.6258 34.1845 27.1255 34.0589 27.6351 34.0346C28.1448 34.0102 28.6542 34.0877 29.1336 34.2623C29.7387 34.4829 30.3886 34.551 31.0262 34.4606C31.6638 34.3702 32.2693 34.1241 32.7894 33.7441L32.8356 33.7107L31.1727 57.9045Z" stroke="#AEAEAE" stroke-width="1.5" stroke-miterlimit="10"/>
<path d="M42.5957 26.4309V19.2451C42.5957 19.2451 44.2608 5.97656 29.3418 5.97656H24.4697" stroke="#AEAEAE" stroke-width="1.5" stroke-miterlimit="10"/>
<path d="M15.2673 6.20349C15.7334 6.20349 16.1112 5.82564 16.1112 5.35955C16.1112 4.89347 15.7334 4.51562 15.2673 4.51562C14.8012 4.51562 14.4233 4.89347 14.4233 5.35955C14.4233 5.82564 14.8012 6.20349 15.2673 6.20349Z" stroke="#AEAEAE" stroke-width="1.5" stroke-miterlimit="10"/>
<path d="M11.5092 8.27441L6.25488 10.6382" stroke="#AEAEAE" stroke-width="1.5" stroke-miterlimit="10"/>
<path d="M11.2938 5.97656H5.16602" stroke="#AEAEAE" stroke-width="1.5" stroke-miterlimit="10"/>
<path d="M11.2935 3.79053L6.25488 1.64551" stroke="#AEAEAE" stroke-width="1.5" stroke-miterlimit="10"/>
<path d="M45.3105 35.4941C45.3105 35.4941 50.141 39.6795 47.5812 50.3701" stroke="#AEAEAE" stroke-width="1.5" stroke-miterlimit="10"/>
</svg>
